<svg xmlns="http://www.w3.org/2000/svg" xmlns:xlink="http://www.w3.org/1999/xlink" clip-rule="evenodd" fill-rule="evenodd" preserveAspectRatio="xMidYMid meet" stroke-linejoin="round" stroke-miterlimit="2" version="1.0" viewBox="91.4 24.6 290.0 450.8" zoomAndPan="magnify" style="fill: rgb(0, 0, 0);" original_string_length="35054" width="314.9388609014719px" height="489.3117895361851px"><g id="__id37_s9b4f5poj"><path d="M808.993,947.473C804.083,928.318 800.026,909.846 797.111,893C795.382,883.009 794.442,875.919 791.478,850.5C790.137,839.007 790.133,762.44 791.472,747C792.93,730.182 795.856,703.413 796.5,701C796.72,700.175 797.175,697.475 797.512,695C815.834,560.334 880.54,438.497 979.409,352.5C983.203,349.2 986.803,346.05 987.41,345.5C1032.98,304.198 1123.1,255.681 1171,246.657C1172.38,246.398 1178.45,245.042 1184.5,243.643C1205.17,238.864 1224.92,236.343 1249.5,235.347C1257.75,235.013 1264.62,234.635 1264.78,234.508C1266.39,233.17 1325.9,235.597 1335.5,237.392C1336.6,237.598 1339.98,238.081 1343,238.467C1460.08,253.38 1561.54,306.753 1630.13,389.5C1643.09,405.132 1671,443.417 1671,445.555C1671,445.742 1673.7,450.181 1677,455.419C1680.3,460.657 1683,465.224 1683,465.567C1683,465.91 1683.83,467.386 1684.84,468.846C1688.88,474.653 1703.86,503.669 1710.74,519C1734.16,571.155 1749.15,630.78 1754.5,693C1755.77,707.853 1755.91,771.957 1754.68,778C1754.4,779.375 1753.87,784.1 1753.51,788.5C1751.24,816.093 1746.85,844.515 1740.62,872.789C1743.5,868.261 1744.91,859.607 1747.38,841.443C1747.72,838.968 1748.23,835.706 1748.52,834.193C1749.41,829.537 1750.15,831.155 1749.44,836.193C1748.57,842.324 1742.86,872.35 1742.27,873.877C1741.96,874.696 1746.39,874.364 1757.1,872.764C1910.4,849.88 2100.28,934.217 2186.39,1063.44C2302.4,1237.53 2301.46,1464.99 2183.93,1660.44C2087.86,1820.2 1916.93,1941.39 1676.88,2019.95C1638.62,2032.47 1594.17,2046.84 1585.8,2049.4C1586.09,2051.63 1585.77,2053.55 1584.99,2055.14C1584.51,2062.21 1577.16,2065.33 1569.42,2063.38C1577.89,2073.37 1581.06,2103.93 1573.49,2116.86C1555.24,2147.99 1523.61,2141.9 1489.02,2101.39C1488.87,2101.84 1488.65,2102.32 1488.36,2102.84C1488.69,2105.47 1486.4,2108.03 1481.38,2114.83C1449.13,2158.52 1427.86,2198.85 1413.92,2251.65C1398.27,2312.91 1392.18,2391.05 1390.11,2510.06C1389.13,2566.59 1386.19,2603.31 1377.1,2637.44C1369.12,2668.99 1356.05,2697.87 1334.65,2737.45C1333.6,2739.4 1332.62,2741.25 1331.86,2742.74C1332.16,2742.66 1332.53,2742.53 1332.97,2742.37C1333.93,2741.96 1335,2741.49 1336.13,2740.97C1337.72,2740.24 1339.31,2739.57 1340.91,2738.96C1377.19,2723.81 1415.71,2741.26 1416.95,2774.16C1417.15,2779.75 1416.36,2785.47 1414.69,2791.24C1402.94,2842.52 1319.12,2899 1248.39,2899C1247.84,2899 1247.37,2899.01 1246.99,2899.04C1247.61,2901.86 1248.68,2907.49 1249.73,2913.5C1251.13,2921.51 1254.01,2936.38 1256.13,2946.56C1282.54,3073.2 1283.55,3141.47 1258.13,3238.48C1256.11,3246.32 1253.92,3254.35 1251.55,3262.61C1250.86,3265.01 1250.27,3267.06 1249.79,3268.82C1248.13,3275.76 1249.03,3277.14 1252.5,3282.5C1266.57,3304.25 1306.9,3352.33 1314.27,3356.15C1321.61,3359.94 1323.96,3369.48 1321.16,3377.16C1320.42,3381.75 1318.01,3386.1 1313.93,3388.8C1299.78,3398.17 1285.56,3387.2 1243.86,3334.73C1237.84,3327.16 1232.77,3321.11 1232.59,3321.29C1232.41,3321.47 1229.15,3329.46 1225.35,3339.06C1193.98,3418.21 1159.23,3495.77 1150.65,3505.8C1146.93,3510.15 1131.04,3512.12 1125.15,3508.96C1122.98,3507.8 1121.42,3505.85 1120.49,3503.4C1116.8,3498.05 1117.42,3488.48 1122.62,3480.24C1133.83,3462.5 1187.01,3338.45 1202.39,3294.17C1207.18,3280.39 1207.18,3280.39 1199.14,3263.67C1172.22,3207.66 1167.29,3177.86 1176.53,3127.09C1180.77,3103.87 1184.01,3093.75 1204.43,3039.99C1217.15,3006.5 1219.94,2987.5 1217.23,2952.69C1217.15,2951.73 1217.05,2950.89 1216.92,2950.19C1214.58,2949.62 1209.63,2959.76 1200.2,2983.5C1193.59,3000.13 1187.39,3019.59 1181.73,3041.18C1162.71,3115.16 1149.85,3213.26 1147.54,3308.56C1147.19,3322.97 1146.48,3332.23 1144.6,3338.09C1142.4,3348.55 1137.99,3351 1128.81,3351C1121.86,3351 1117.22,3349.4 1114.47,3342.86C1108.11,3332.95 1108.92,3306.66 1113.92,3240.44C1125.06,3092.91 1147.65,2996.66 1189.88,2916.82C1191.84,2913.11 1193.39,2910.64 1193.3,2908.66C1189.83,2905.54 1178.89,2902.86 1152.87,2895.99C1100.87,2882.25 1065.29,2858.85 1051.1,2830.13C1045.69,2820.19 1042.88,2809.58 1042.9,2798.48C1042.93,2774 1054.48,2756.86 1073.44,2749.82C1085.35,2744.73 1100.45,2743.85 1117.61,2747.91C1116.89,2746.65 1115.91,2745 1114.61,2742.87C1112.23,2738.96 1109.34,2733.67 1106.37,2727.9C1099.93,2715.6 1092.8,2700.33 1089.53,2691.44C1065.88,2627.08 1064.36,2580.89 1081.4,2443.94C1094.79,2336.31 1093.79,2277.55 1077.78,2230.47C1076.82,2227.66 1076.15,2225.72 1075.72,2224.38C1051.33,2245.57 1021.19,2249.93 1006.42,2230.66C994.522,2215.14 998.228,2196.98 1018.09,2173.51C1020.54,2170.61 1023.23,2167.9 1025.76,2165.73C1018.83,2167.96 1013.82,2165.92 1010.83,2159.6C1010.72,2159.37 1010.61,2159.13 1010.51,2158.9C1010.15,2158.33 1009.82,2157.71 1009.5,2157.04C1008.56,2155.06 1008.11,2153.08 1008.16,2151.08C1006.84,2151.12 1004.46,2149.8 999.411,2146.99C989.699,2141.59 988.183,2140.77 978.672,2135.78C975.726,2134.23 970.702,2131.58 967.506,2129.88C953.739,2122.56 942.925,2116.82 937.948,2114.19C935.01,2112.64 930.438,2110.2 927.786,2108.78C925.135,2107.36 919.293,2104.3 914.806,2102C910.318,2099.69 906.533,2097.66 906.395,2097.48C906.256,2097.3 903.838,2095.94 901.023,2094.44C871.252,2078.67 839.594,2060.31 817.654,2046.08C812.765,2042.91 804.518,2036.08 796.515,2030.76C742.595,1994.91 681.555,1944.8 642.357,1904.2C640.243,1902.01 637.389,1899.1 636.014,1897.73C614.353,1876.16 598.114,1857.75 572.369,1825.6C537.216,1781.69 524.628,1762.38 503.231,1719.54C486.261,1685.57 470.969,1646.97 460.167,1610.84C459.154,1607.45 458.123,1604.26 457.876,1603.76C454.86,1597.59 442.183,1537.46 438.85,1513.52C428.739,1440.87 432.624,1364.49 449.633,1301.53C450.102,1299.79 451.345,1295.15 452.395,1291.21C456.441,1276.04 463.484,1255.5 470.474,1238.48C476.331,1224.22 492.495,1189.5 496.98,1181.54C498.299,1179.2 500.663,1174.91 502.232,1171.99C516.087,1146.26 538.821,1113.52 559.758,1089.14L577.666,1068.15C635.216,1008.06 720.014,965.942 808.993,947.473ZM1162.26,2103.79C1164.53,2106.99 1164.85,2111 1163.15,2115.8C1162.91,2117.3 1162.45,2118.89 1161.75,2120.57C1160.98,2122.39 1160.17,2123.7 1158.75,2124.62C1171.61,2127.88 1192.21,2149.64 1194.1,2164.28C1199.07,2202.62 1165.71,2216.58 1106.29,2201.03C1106.01,2200.96 1105.74,2200.89 1105.47,2200.82C1107.72,2202.76 1113.26,2216.67 1116.48,2228.59C1130.83,2281.7 1131.69,2340.7 1119.55,2438.56C1100.96,2588.29 1103.09,2632.31 1131.99,2695.56C1138.6,2710.03 1168.87,2758.85 1178.1,2770.7C1177.64,2767.49 1176.82,2762.34 1175.86,2756.61C1157.97,2650.42 1171.54,2590.06 1240.41,2469.44C1291.06,2380.76 1295.9,2348.46 1277.78,2220.44C1275.24,2202.47 1268.23,2163.53 1257.9,2109.94C1246.14,2049 1239.13,2004.77 1238.83,1990.48C1231.63,2001.74 1224.2,2013.03 1216.53,2024.35C1193.48,2058.36 1166.51,2097.83 1162.26,2103.79ZM1269.19,1940.71C1269.23,1940.91 1269.27,1941.13 1269.32,1941.37C1269.44,1941.01 1269.55,1940.62 1269.65,1940.23C1269.7,1940.01 1269.76,1939.82 1269.81,1939.64C1269.6,1939.99 1269.39,1940.35 1269.19,1940.71ZM1270.71,1938.09C1271.51,1938.4 1272.2,1943.97 1273.05,1956.06C1275.96,1997.61 1281.11,2032.52 1294.61,2102.06C1312.54,2194.47 1316.61,2220.64 1323.26,2286.06C1326.34,2316.44 1324.46,2354.79 1318.59,2381.09C1317.64,2385.35 1316.65,2389.42 1315.59,2393.4C1308.37,2421.96 1297.95,2444.61 1271.67,2490.5C1242.42,2541.58 1223.74,2579.79 1213.9,2616.66C1200.21,2670.86 1205.63,2722.89 1224.68,2809.56C1229.14,2829.85 1230.96,2838.26 1232.15,2840.87C1232.22,2840.73 1232.3,2840.59 1232.37,2840.44C1233.36,2838.51 1242.36,2823.22 1252.39,2806.44C1314.64,2702.24 1342.34,2641.08 1349.36,2592.3C1351.35,2578.44 1351.72,2569.04 1352.93,2501.44C1356.77,2286.48 1376.29,2199.47 1441.82,2105.33C1449.34,2094.53 1451.08,2091.83 1454.12,2090.65C1417.11,2096.99 1384.32,2081.45 1384.45,2054.45C1384.54,2034.89 1398.59,2022.81 1428.66,2016.4C1431.84,2015.73 1435.07,2015.27 1438.03,2015.05C1436.61,2014 1435.75,2012.54 1434.75,2010.43C1434.7,2010.33 1434.65,2010.22 1434.6,2010.11C1434.2,2009.46 1433.82,2008.72 1433.42,2007.88C1430.89,2002.54 1432.29,1996.61 1436.33,1992.58C1434.26,1993.65 1433.57,1992.03 1430.13,1984C1425.75,1973.79 1425.06,1972.21 1420.59,1962.44C1419.21,1959.42 1416.86,1954.24 1415.37,1950.94C1408.97,1936.73 1403.93,1925.57 1401.6,1920.44C1400.23,1917.42 1398.11,1912.69 1396.88,1909.94C1395.66,1907.19 1392.91,1901.2 1390.77,1896.63C1388.63,1892.06 1386.88,1888.14 1386.88,1887.91C1386.88,1887.69 1385.81,1885.13 1384.5,1882.22C1370.61,1851.53 1356.82,1817.62 1348.18,1792.94C1347.09,1789.82 1345.94,1786.91 1345.04,1784.9C1325.36,1835.29 1300.57,1886.39 1270.71,1938.09ZM1096.63,2199.83C1096.79,2199.8 1096.95,2199.77 1097.11,2199.75C1097.29,2199.63 1097.47,2199.51 1097.65,2199.42C1097.26,2199.49 1096.93,2199.63 1096.63,2199.83ZM1378.7,2775.66C1375.61,2771.6 1368.62,2770.36 1357.29,2773.53C1338.55,2778.77 1314.19,2801.22 1281,2843.84C1276.48,2849.64 1273.43,2853.47 1271.83,2855.88C1272.93,2856.31 1276.08,2855.39 1281.25,2854.09C1290.96,2851.66 1299.44,2849.05 1307.37,2845.95C1318.53,2841.41 1328.73,2835.82 1339.98,2828.3C1367.88,2809.64 1382.31,2786.67 1378.7,2775.66ZM1192.85,2866.6C1191.98,2865.1 1190.75,2863.08 1189.13,2860.43C1159.91,2812.4 1113.76,2776.95 1089.68,2784.05C1085.23,2785.36 1082.02,2788.92 1080.38,2793.55C1079.57,2798.25 1080.17,2803.64 1082.45,2808.78C1092.1,2830.44 1119.65,2847.02 1167.02,2859.68C1177.24,2862.42 1187.82,2865.3 1190.52,2866.1C1191.46,2866.38 1192.27,2866.62 1192.93,2866.81C1192.91,2866.74 1192.88,2866.67 1192.85,2866.6ZM1236.78,3060.41C1236.65,3060.71 1236.5,3061.07 1236.32,3061.5C1227.41,3083.18 1220.73,3102.1 1216.19,3119.15C1205.96,3159.57 1208.1,3189.54 1221.38,3221.56C1222.16,3223.42 1222.74,3224.82 1223.21,3225.72C1223.57,3224.51 1223.98,3222.76 1224.53,3220.44C1238.99,3159.56 1242.88,3109.97 1236.97,3061.94C1236.9,3061.38 1236.84,3060.87 1236.78,3060.41Z" transform="matrix(0.137457,5.08194e-05,-5.08194e-05,0.137457,64.9169,-7.50106)" style="fill: rgb(183, 213, 228);"/></g><g id="__id38_s9b4f5poj"><path d="M1264.78,234.508C1264.62,234.635 1257.75,235.013 1249.5,235.347C1224.92,236.343 1205.17,238.864 1184.5,243.643C1178.45,245.042 1172.38,246.398 1171,246.657C1123.1,255.681 1032.98,304.198 987.41,345.5C986.803,346.05 983.203,349.2 979.409,352.5C880.54,438.497 815.834,560.334 797.512,695C797.175,697.475 796.72,700.175 796.5,701C795.856,703.413 792.93,730.182 791.472,747C790.133,762.44 790.137,839.007 791.478,850.5C794.442,875.919 795.382,883.009 797.111,893C807.274,951.733 831.322,1030.24 856.995,1088.5C857.965,1090.7 861.124,1097.9 864.017,1104.5C871.066,1120.59 890.038,1159.13 896.662,1170.83C899.598,1176.02 902,1180.4 902,1180.58C902,1181.32 918.371,1209.27 926.854,1223C938.213,1241.39 957.334,1270.56 965.2,1281.5C973.584,1293.16 989.369,1314.57 989.907,1315C990.248,1315.28 994.112,1320.23 998.493,1326C1002.88,1331.78 1011.57,1343.03 1017.82,1351C1024.07,1358.98 1033.73,1371.35 1039.28,1378.5C1044.84,1385.65 1049.66,1391.73 1049.98,1392C1051.16,1393 1073.86,1422.89 1077.78,1428.62C1079.99,1431.85 1083.86,1436.75 1086.37,1439.5C1091.3,1444.9 1091.83,1446 1089.49,1446C1088.65,1446 1087.19,1446.42 1086.24,1446.93C1085.28,1447.44 1081.4,1449.24 1077.61,1450.94C1043.45,1466.24 1031.84,1493.64 1051.32,1512.98C1069.1,1530.62 1102.16,1529.16 1136,1509.24C1139.5,1507.18 1139.5,1507.18 1151.5,1516.19C1183.21,1540.01 1196.29,1545.12 1213.98,1540.58C1247.71,1531.94 1253.05,1498.78 1226.34,1463.83C1223.95,1460.7 1222,1457.92 1222,1457.64C1222,1457.15 1245.8,1441 1246.52,1441C1246.7,1441 1257.27,1434.48 1270,1426.5C1282.73,1418.53 1293.32,1412 1293.53,1412C1294.99,1412 1371.43,1363.07 1385.28,1353.26C1390.9,1349.28 1396.35,1345.46 1397.38,1344.76C1401.29,1342.14 1427.52,1322.68 1428,1322.06C1428.28,1321.7 1431.42,1319.2 1435,1316.51C1537.3,1239.36 1641.79,1117.67 1690.04,1019.5C1723.95,950.48 1747.11,866.202 1753.51,788.5C1753.87,784.1 1754.4,779.375 1754.68,778C1755.91,771.957 1755.77,707.853 1754.5,693C1749.15,630.78 1734.16,571.155 1710.74,519C1703.86,503.669 1688.88,474.653 1684.84,468.846C1683.83,467.386 1683,465.91 1683,465.567C1683,465.224 1680.3,460.657 1677,455.419C1673.7,450.181 1671,445.742 1671,445.555C1671,443.417 1643.09,405.132 1630.13,389.5C1561.54,306.753 1460.08,253.38 1343,238.467C1339.98,238.081 1336.6,237.598 1335.5,237.392C1325.9,235.597 1266.39,233.17 1264.78,234.508" transform="matrix(0.137457,5.08194e-05,-5.08194e-05,0.137457,64.9169,-7.50106)" style="fill: rgb(93, 137, 165);"/></g><g id="__id39_s9b4f5poj"><path d="M1746.63,834.75C1746.34,836.263 1745.83,839.525 1745.5,842C1741.11,874.266 1740.05,876.523 1728.21,878.954C1696.73,885.415 1658.71,897.389 1632,909.251C1628.98,910.595 1624.48,912.547 1622,913.589C1613.58,917.134 1579.55,934.69 1566.19,942.379C1550.24,951.558 1532.1,963.489 1519.61,973.009C1516.37,975.479 1512.54,978.389 1511.11,979.476C1459.11,1018.85 1409.28,1076.87 1372.8,1140.5C1360.78,1161.47 1334,1216.78 1332.6,1223.5C1332.49,1224.05 1331.36,1227.2 1330.08,1230.5C1316.51,1265.68 1304.97,1305.56 1297.59,1342.82C1288.28,1389.79 1286.41,1412.76 1287.33,1469C1288,1510.19 1289.57,1534.68 1293.49,1565C1293.74,1566.92 1294.22,1570.98 1294.55,1574C1300.68,1630.1 1318.27,1707.09 1338.96,1768.44C1342.04,1777.55 1342.7,1780.58 1341.75,1781.19C1340.82,1781.79 1340.8,1782.19 1341.65,1782.75C1342.28,1783.16 1344.38,1788 1346.3,1793.5C1354.94,1818.18 1368.73,1852.08 1382.61,1882.78C1383.92,1885.68 1385,1888.24 1385,1888.47C1385,1888.7 1386.75,1892.62 1388.89,1897.19C1391.02,1901.76 1393.77,1907.75 1395,1910.5C1396.22,1913.25 1398.35,1917.98 1399.72,1921C1402.05,1926.12 1407.08,1937.28 1413.49,1951.5C1414.97,1954.8 1417.32,1959.98 1418.7,1963C1423.17,1972.77 1423.87,1974.35 1428.24,1984.56C1432.55,1994.62 1432.55,1994.62 1436.36,1991.86C1449.16,1982.57 1505.73,1990.98 1535.5,2006.59C1558.83,2018.83 1580.69,2037.55 1581.12,2045.67C1581.35,2049.76 1581.57,2050.5 1582.55,2050.35C1583.64,2050.19 1633.04,2034.24 1675,2020.51C1915.05,1941.94 2085.97,1820.75 2182.04,1661C2299.57,1465.55 2300.51,1238.09 2184.5,1064C2098.39,934.774 1908.52,850.437 1755.22,873.321C1744.5,874.921 1740.07,875.253 1740.39,874.434C1740.97,872.907 1746.68,842.881 1747.55,836.75C1748.27,831.712 1747.52,830.094 1746.63,834.75M1426.78,2016.96C1396.7,2023.37 1382.66,2035.45 1382.56,2055.01C1382.41,2086.2 1426.2,2102.09 1469.67,2086.63C1473.84,2085.15 1473.84,2085.15 1479.67,2092.72C1517.13,2141.39 1552.05,2150.77 1571.6,2117.42C1580.27,2102.62 1574.87,2064.75 1563.56,2061.02C1561.8,2060.44 1558.37,2057.87 1555.93,2055.3C1533.67,2031.88 1500.64,2018.39 1461,2016.53C1454.12,2016.21 1445.58,2015.76 1442,2015.53C1437.92,2015.26 1432.26,2015.8 1426.78,2016.96" transform="matrix(0.137457,5.08194e-05,-5.08194e-05,0.137457,65.176,-7.57752)" style="fill: rgb(183, 213, 228);"/></g><g id="__id40_s9b4f5poj"><path d="M1728.21,878.954C1696.73,885.415 1658.71,897.389 1632,909.251C1628.98,910.595 1624.48,912.547 1622,913.589C1613.58,917.134 1579.55,934.69 1566.19,942.379C1550.24,951.558 1532.1,963.489 1519.61,973.009C1516.37,975.479 1512.54,978.389 1511.11,979.476C1459.11,1018.85 1409.28,1076.87 1372.8,1140.5C1360.78,1161.47 1334,1216.78 1332.6,1223.5C1332.49,1224.05 1331.36,1227.2 1330.08,1230.5C1316.51,1265.68 1304.97,1305.56 1297.59,1342.82C1288.28,1389.79 1286.41,1412.76 1287.33,1469C1288,1510.19 1289.57,1534.68 1293.49,1565C1293.74,1566.92 1294.22,1570.98 1294.55,1574C1300.68,1630.1 1318.27,1707.09 1338.96,1768.44C1342.04,1777.55 1344.38,1788 1346.3,1793.5C1354.94,1818.18 1368.73,1852.08 1382.61,1882.78C1383.92,1885.68 1385,1888.24 1385,1888.47C1385,1888.7 1386.75,1892.62 1388.89,1897.19C1391.02,1901.76 1393.77,1907.75 1395,1910.5C1396.22,1913.25 1398.35,1917.98 1399.72,1921C1402.05,1926.12 1407.08,1937.28 1413.49,1951.5C1414.97,1954.8 1417.32,1959.98 1418.7,1963C1423.17,1972.77 1423.87,1974.35 1428.24,1984.56C1432.55,1994.62 1432.55,1994.62 1436.36,1991.86C1449.16,1982.57 1505.73,1990.98 1535.5,2006.59C1558.83,2018.83 1580.69,2037.55 1581.12,2045.67C1581.35,2049.76 1581.57,2050.5 1582.55,2050.35C1583.64,2050.19 1633.04,2034.24 1675,2020.51C1915.05,1941.94 2085.97,1820.75 2182.04,1661C2299.57,1465.55 2300.51,1238.09 2184.5,1064C2098.39,934.774 1908.52,850.437 1755.22,873.321M1426.78,2016.96C1396.7,2023.37 1382.66,2035.45 1382.56,2055.01C1382.41,2086.2 1426.2,2102.09 1469.67,2086.63C1473.84,2085.15 1473.84,2085.15 1479.67,2092.72C1517.13,2141.39 1552.05,2150.77 1571.6,2117.42C1580.27,2102.62 1574.87,2064.75 1563.56,2061.02C1561.8,2060.44 1558.37,2057.87 1555.93,2055.3C1533.67,2031.88 1500.64,2018.39 1461,2016.53C1454.12,2016.21 1445.58,2015.76 1442,2015.53C1437.92,2015.26 1432.26,2015.8 1426.78,2016.96" transform="matrix(0.10872,-0.0841097,0.0841097,0.10872,-120.015,192.036)" style="fill: rgb(145, 185, 205);"/></g><g id="__id41_s9b4f5poj"><path d="M1071.56,2750.37C1083.47,2745.29 1098.57,2744.4 1115.73,2748.47C1115.01,2747.2 1114.02,2745.55 1112.73,2743.43C1110.35,2739.51 1107.45,2734.23 1104.48,2728.46C1098.04,2716.16 1090.91,2700.88 1087.65,2692C1063.99,2627.64 1062.47,2581.44 1079.51,2444.5C1092.9,2336.87 1091.91,2278.11 1075.9,2231.03C1072.56,2221.21 1072.72,2222 1073.99,2222C1074.32,2222 1074.82,2221.78 1075.37,2221.45C1075.38,2221.1 1075.57,2221.09 1075.89,2221.1C1077.37,2220.08 1079,2218.44 1079,2217.72C1079,2217.26 1080.28,2215.68 1081.85,2214.19C1083.42,2212.71 1086.61,2208.88 1088.93,2205.69C1091.44,2202.23 1093.15,2200.55 1095.22,2200.31C1097.45,2198.77 1099.59,2199.24 1103.35,2201.21C1105.42,2202.29 1111.26,2216.79 1114.6,2229.14C1128.95,2282.25 1129.81,2341.26 1117.66,2439.12C1099.08,2588.85 1101.21,2632.86 1130.11,2696.12C1136.71,2710.58 1166.99,2759.4 1176.21,2771.26C1175.75,2768.04 1174.94,2762.9 1173.97,2757.17C1156.08,2650.98 1169.65,2590.61 1238.53,2470C1289.17,2381.32 1294.02,2349.01 1275.9,2221C1273.36,2203.02 1266.35,2164.08 1256.01,2110.5C1241.91,2037.37 1234.63,1988.29 1237.59,1986.16C1238.73,1985.34 1243,1979.29 1243,1978.5C1243,1978.18 1243.94,1976.92 1245.09,1975.71C1246.24,1974.49 1247.86,1971.81 1248.7,1969.75C1249.53,1967.69 1250.57,1966 1251,1966C1251.42,1966 1252.55,1964.31 1253.5,1962.25C1255.34,1958.25 1262.99,1945.84 1264.15,1944.99C1264.53,1944.71 1265.16,1943.21 1265.55,1941.67C1266.27,1938.8 1266.86,1938.7 1267.43,1941.93C1267.55,1941.56 1267.67,1941.17 1267.77,1940.78C1269.09,1935.51 1269.97,1939.6 1271.16,1956.62C1274.07,1998.17 1279.23,2033.08 1292.72,2102.62C1310.65,2195.02 1314.73,2221.2 1321.37,2286.62C1324.46,2316.99 1322.57,2355.35 1316.7,2381.65C1315.76,2385.9 1314.77,2389.98 1313.71,2393.96C1306.49,2422.51 1296.06,2445.17 1269.79,2491.05C1240.54,2542.13 1221.85,2580.35 1212.01,2617.21C1198.33,2671.41 1203.75,2723.45 1222.8,2810.12C1227.26,2830.41 1229.08,2838.82 1230.27,2841.43C1230.34,2841.29 1230.41,2841.14 1230.49,2840.99C1231.47,2839.07 1240.48,2823.78 1250.5,2807C1312.76,2702.8 1340.45,2641.63 1347.47,2592.85C1349.47,2579 1349.84,2569.6 1351.04,2502C1354.88,2287.04 1374.41,2200.03 1439.93,2105.89C1448.34,2093.81 1449.52,2091.86 1453.38,2090.84C1454.85,2089.98 1456.43,2089.74 1459.12,2089.21C1462.45,2088.56 1467.61,2087.18 1470.59,2086.16C1476.01,2084.3 1476.01,2084.3 1480.97,2090.49C1486.83,2097.8 1488.74,2099.28 1486.48,2103.39C1486.8,2106.02 1484.52,2108.59 1479.5,2115.39C1447.24,2159.07 1425.97,2199.41 1412.03,2252.21C1396.39,2313.46 1390.3,2391.61 1388.23,2510.62C1387.25,2567.15 1384.31,2603.86 1375.21,2638C1367.23,2669.55 1354.17,2698.42 1332.76,2738.01C1331.71,2739.96 1330.74,2741.8 1329.98,2743.3C1330.27,2743.21 1330.65,2743.09 1331.09,2742.92C1332.04,2742.52 1333.12,2742.05 1334.25,2741.52C1335.84,2740.79 1337.43,2740.12 1339.02,2739.52C1375.31,2724.37 1413.83,2741.82 1415.06,2774.72C1415.27,2780.31 1414.48,2786.03 1412.81,2791.79C1401.06,2843.08 1317.23,2899.55 1246.51,2899.55C1245.95,2899.55 1245.49,2899.57 1245.1,2899.6C1245.72,2902.42 1246.8,2908.04 1247.85,2914.06C1249.24,2922.06 1252.12,2936.94 1254.25,2947.12C1280.66,3073.76 1281.66,3142.03 1256.25,3239.04C1254.23,3246.88 1252.04,3254.91 1249.67,3263.16C1248.98,3265.57 1248.39,3267.62 1247.9,3269.38C1246.25,3276.31 1247.14,3277.7 1250.61,3283.06C1264.68,3304.81 1305.02,3352.89 1312.39,3356.7C1319.73,3360.5 1322.07,3370.03 1319.28,3377.72C1318.53,3382.31 1316.13,3386.66 1312.04,3389.36C1297.89,3398.72 1283.68,3387.76 1241.97,3335.28C1235.95,3327.71 1230.88,3321.66 1230.7,3321.84C1230.52,3322.02 1227.27,3330.02 1223.46,3339.61C1192.09,3418.77 1157.35,3496.32 1148.76,3506.36C1145.04,3510.7 1129.16,3512.68 1123.26,3509.52C1121.09,3508.36 1119.54,3506.4 1118.61,3503.96C1114.91,3498.6 1115.54,3489.03 1120.74,3480.79C1131.94,3463.06 1185.12,3339.01 1200.51,3294.73C1205.29,3280.95 1205.29,3280.95 1197.25,3264.23C1170.33,3208.22 1165.4,3178.41 1174.65,3127.65C1178.88,3104.43 1182.12,3094.31 1202.55,3040.55C1215.27,3007.05 1218.06,2988.05 1215.35,2953.25C1215.27,2952.28 1215.17,2951.45 1215.04,2950.75C1212.7,2950.17 1207.75,2960.31 1198.31,2984.05C1191.7,3000.69 1185.51,3020.15 1179.85,3041.74C1160.83,3115.72 1147.97,3213.82 1145.66,3309.12C1145.31,3323.53 1144.6,3332.78 1142.71,3338.64C1140.52,3349.11 1136.11,3351.55 1126.92,3351.55C1119.98,3351.55 1115.34,3349.96 1112.58,3343.42C1106.23,3333.5 1107.03,3307.22 1112.04,3241C1123.18,3093.47 1145.77,2997.21 1187.99,2917.37C1189.95,2913.67 1191.5,2911.2 1191.42,2909.21C1187.95,2906.1 1177.01,2903.42 1150.99,2896.55C1098.98,2882.8 1063.4,2859.4 1049.22,2830.69C1043.81,2820.75 1041,2810.13 1041.01,2799.04C1041.04,2774.56 1052.59,2757.42 1071.56,2750.37ZM1376.82,2776.22C1373.72,2772.15 1366.73,2770.91 1355.41,2774.08C1336.66,2779.33 1312.31,2801.77 1279.12,2844.39C1274.6,2850.2 1271.55,2854.03 1269.95,2856.44C1271.05,2856.86 1274.2,2855.95 1279.37,2854.65C1289.08,2852.22 1297.55,2849.61 1305.48,2846.51C1316.65,2841.97 1326.85,2836.38 1338.09,2828.86C1366,2810.2 1380.42,2787.23 1376.82,2776.22ZM1234.89,3060.97C1234.76,3061.26 1234.61,3061.63 1234.44,3062.05C1225.53,3083.74 1218.85,3102.65 1214.31,3119.7C1204.08,3160.13 1206.21,3190.1 1219.5,3222.11C1220.27,3223.97 1220.85,3225.37 1221.32,3226.28C1221.68,3225.06 1222.1,3223.31 1222.65,3221C1237.11,3160.12 1241,3110.52 1235.09,3062.5C1235.02,3061.94 1234.95,3061.43 1234.89,3060.97ZM1190.97,2867.16C1190.1,2865.65 1188.86,2863.64 1187.25,2860.99C1158.03,2812.96 1111.88,2777.51 1087.8,2784.61C1083.35,2785.91 1080.14,2789.47 1078.5,2794.11C1077.68,2798.81 1078.28,2804.2 1080.57,2809.34C1090.21,2830.99 1117.76,2847.58 1165.14,2860.24C1175.36,2862.97 1185.93,2865.86 1188.64,2866.66C1189.58,2866.94 1190.38,2867.18 1191.05,2867.36C1191.02,2867.3 1191,2867.23 1190.97,2867.16ZM1440.98,1989.21C1441.82,1988.8 1442.72,1988.46 1443.66,1988.18C1455.12,1984.86 1494.59,1989.46 1515.72,1996.6C1546.08,2006.85 1582.84,2032.93 1583.3,2044.54C1583.35,2045.68 1583.59,2047.9 1583.85,2049.48C1584.25,2051.91 1583.94,2054 1583.11,2055.7C1582.4,2066.16 1566.62,2067.98 1556.83,2057.48C1534.42,2033.44 1501.79,2020.86 1456.16,2018.69C1437.57,2017.81 1435.82,2017.23 1432.86,2010.99C1432.81,2010.88 1432.76,2010.78 1432.71,2010.67C1432.31,2010.02 1431.94,2009.28 1431.54,2008.44C1427.92,2000.82 1432.31,1991.99 1440.98,1989.21ZM1067.74,2106.36C1082.11,2100.5 1096.32,2097.13 1111.22,2095.9C1149.38,2092.76 1167.05,2100.01 1161.27,2116.36C1161.03,2117.85 1160.56,2119.44 1159.86,2121.12C1157.45,2126.88 1154.52,2127.53 1133.75,2126.87C1094.99,2125.65 1069.88,2133.98 1036.49,2159.16C1022.81,2169.49 1013.53,2169.82 1008.94,2160.16C1008.83,2159.92 1008.73,2159.69 1008.63,2159.46C1008.27,2158.89 1007.93,2158.27 1007.62,2157.6C1004.06,2150.1 1007.57,2142.54 1018.29,2134.65C1035.69,2121.85 1051.79,2112.58 1067.74,2106.36Z" transform="matrix(0.137457,5.08194e-05,-5.08194e-05,0.137457,65.176,-7.57752)" style="fill: rgb(215, 185, 157);"/></g><g id="__id42_s9b4f5poj"><path d="M802,959.661C790.369,961.931 782.26,966.255 760.5,981.791C735.471,999.661 735.858,996.543 755.5,1022.12C778.606,1052.2 791.675,1060.71 809.171,1057.07C827.149,1053.33 832.335,1030.23 819.003,1013.28C816.936,1010.65 816.936,1010.65 821.957,1006.26C845.573,985.598 831.959,953.814 802,959.661M1058.31,972.837C1050.9,1024.56 1095.71,1049.78 1109.52,1001.66C1111.2,995.814 1111.2,995.814 1114.85,996.434C1122.74,997.773 1100.08,984.704 1075,973.457C1058.56,966.081 1059.28,966.108 1058.31,972.837M923.81,986.336C903.646,992.031 900.515,1014.33 917.533,1031.03C921.871,1035.29 921.871,1035.29 918.471,1039.74C892.165,1074.19 931.716,1100.79 964.584,1070.75C972.33,1063.67 996.752,1036.64 998.126,1033.62C1000.58,1028.24 999.463,1026.97 973.107,1005.22C952.232,987.997 937.675,982.42 923.81,986.336M639.834,1013.34C609.845,1030.43 606.951,1035.57 619.106,1050.18C623.787,1055.81 623.754,1055.38 619.851,1059.82C603.478,1078.47 610.989,1102.2 633.746,1103.72C659.436,1105.43 709.663,1057.22 695.323,1044.61C692.75,1042.35 686.788,1036.94 682.073,1032.59C655.908,1008.46 651.735,1006.56 639.834,1013.34M1077.44,1084.88C1061.24,1089.05 1052.81,1100.77 1040.88,1135.68C1031.9,1161.96 1032,1163.54 1042.76,1166.56C1045.91,1167.45 1052.76,1169.52 1057.96,1171.15C1086.72,1180.19 1100.08,1181.6 1111.71,1176.82C1136.88,1166.47 1135.62,1140.77 1109.37,1128.87C1104.16,1126.51 1102.96,1125.55 1103.49,1124.2C1112.05,1102.16 1097.23,1079.79 1077.44,1084.88M1245.97,1098.96C1245.13,1099.45 1239.73,1101.02 1233.97,1102.45C1215.86,1106.94 1216.14,1106.84 1214.41,1110.17C1212.49,1113.88 1212.52,1114.02 1218.82,1135.5C1227.31,1164.42 1230.78,1171.86 1239.61,1180C1262.86,1201.42 1288.98,1183.17 1281.42,1150.8C1280.88,1148.48 1281.16,1148 1283.39,1147.44C1287.2,1146.48 1278.33,1133.65 1258.5,1111.45C1254.1,1106.53 1249.83,1101.5 1249,1100.28C1247.92,1098.68 1247.07,1098.31 1245.97,1098.96M830.233,1113.67C828.026,1114.56 802.48,1148.79 797.511,1157.52C777.533,1192.62 809.059,1222.91 836.817,1195.29C842.134,1190 842.134,1190 846.584,1193.06C867.778,1207.64 890.005,1198.9 889.984,1176C889.969,1160.37 882.285,1149.69 854.996,1127.38C836.583,1112.33 835.305,1111.63 830.233,1113.67M543.308,1152.01C537.177,1154.48 530.689,1200.54 534.008,1218.04C540.766,1253.68 581.816,1254.81 586.657,1219.49C587.272,1215 587.272,1215 594.954,1215C619.11,1215 632.07,1199.94 623.68,1181.61C617.03,1167.09 604.806,1160.71 574.52,1155.98C567.359,1154.87 558.115,1153.29 553.977,1152.48C545.463,1150.81 546.216,1150.84 543.308,1152.01M699.118,1230.22C689.07,1235.09 685.724,1246.34 688.212,1266.88C688.46,1268.92 687.854,1269.45 683.863,1270.62C661.666,1277.18 653.897,1299.73 669.12,1313.42C682.061,1325.05 695.011,1325.46 733.5,1315.46C740.65,1313.6 747.776,1311.82 749.336,1311.5C759.223,1309.47 758.901,1304.63 746.274,1265.5C736.678,1235.76 717.42,1221.36 699.118,1230.22M1146,1243.02C1105.89,1247.93 1100.56,1291.94 1139.5,1296.76C1145.5,1297.5 1145.5,1297.5 1146.16,1304.87C1149.88,1346.56 1192.44,1343.17 1201.08,1300.5C1202.08,1295.55 1203.38,1284.08 1203.96,1275C1204.55,1265.92 1205.28,1256.85 1205.59,1254.84C1207.22,1244.12 1180.38,1238.8 1146,1243.02M921.5,1267.19C915.45,1270.54 905.563,1276.03 899.53,1279.39C854.642,1304.38 864.272,1358.89 909.691,1336.91C912.118,1335.73 914.21,1334.93 914.339,1335.14C920.293,1344.4 922.601,1347.36 926.175,1350.27C951.319,1370.76 976.245,1342.39 963.047,1308.31C945.545,1263.11 939.55,1257.18 921.5,1267.19M455.5,1306.31C448.35,1307.43 445.448,1308.08 445.274,1308.2C441.236,1311.05 429.767,1377.46 433.007,1379.46C433.516,1379.77 433.272,1380.23 434.998,1383.52C451.762,1415.49 487.333,1395 484.51,1355C484.141,1349.78 482.979,1338.98 481.927,1331C480.875,1323.03 480.011,1315 480.007,1313.17C479.998,1308.78 475.351,1303.94 471.327,1304.14C469.772,1304.21 462.65,1305.19 455.5,1306.31M1324.15,1358.17C1317.94,1359.26 1311.36,1363.34 1304.89,1370.13C1299.29,1376.01 1299.29,1376.01 1296.59,1373.89C1282.2,1362.57 1259.95,1366.09 1254.43,1380.55C1248.24,1396.75 1257.5,1413.86 1282.31,1432.11C1288.46,1436.64 1296.65,1442.71 1300.51,1445.59C1308.55,1451.61 1311.72,1452.73 1315.35,1450.83C1318.35,1449.26 1341.4,1415.09 1345.94,1405.46C1358.08,1379.78 1346.33,1354.27 1324.15,1358.17M1051.5,1373.47C1008.85,1384.7 1000.7,1390.18 1006.4,1403.78C1007.72,1406.93 1010.46,1414 1012.5,1419.5C1031.14,1469.84 1070.14,1486.34 1077.02,1446.81C1078.11,1440.53 1077.92,1438.12 1075.4,1426.87C1074.86,1424.46 1075.29,1424.01 1080.28,1421.73C1120.52,1403.31 1095.77,1361.81 1051.5,1373.47M619.757,1391.07C612.034,1392.91 602.264,1401.47 598.443,1409.74C596.207,1414.58 596.288,1414.56 589,1412C556.839,1400.69 538.939,1431.93 563.449,1456.6C571.041,1464.24 614.026,1487 620.862,1487C623.049,1487 629,1482.44 629,1480.77C629,1480.18 632.109,1472.42 635.909,1463.51C645.992,1439.86 648.267,1432.25 648.319,1422C648.421,1401.78 635.147,1387.4 619.757,1391.07M796.5,1401.8C778.325,1410.37 775.295,1428.36 785.1,1469.5C787.328,1478.85 789.361,1487.55 789.616,1488.84C790.772,1494.64 797.106,1497.43 803.565,1494.98C805.047,1494.41 812.839,1492.14 820.88,1489.93C853.341,1481 863.588,1475.08 870.479,1461.26C880.501,1441.17 867.463,1425.76 841.772,1427.32C832.993,1427.86 831.999,1427.74 831.99,1426.21C831.902,1410.81 809.733,1395.57 796.5,1401.8M1190.5,1464.61C1176.76,1472.07 1174.1,1490.01 1184.47,1505.2C1187.71,1509.94 1187.89,1509.33 1181.52,1515.15C1161,1533.91 1168.4,1558.91 1195.02,1560.74C1208.08,1561.63 1217.61,1557.35 1244,1538.69C1269.31,1520.81 1268.81,1524.05 1250.02,1499.3C1225.85,1467.48 1206.26,1456.06 1190.5,1464.61M435.75,1506.63C431.872,1507.77 438.973,1558.95 445.998,1580.5C447.074,1583.8 450.869,1592.99 451.521,1592.23C455.107,1584.69 456.947,1573.67 454.185,1565.53C451.821,1558.56 451.744,1558.79 457.331,1556.08C491.189,1539.69 472.115,1495.99 435.75,1506.63M952.374,1549.76C946.191,1550.76 931.071,1595.69 931.017,1613.23C930.91,1648.5 971.256,1657.43 982.319,1624.59C983.555,1620.92 983.991,1620.53 986.598,1620.83C1015.3,1624.08 1028.65,1616.31 1026.71,1597.49C1024.79,1578.88 1013.08,1569.95 971,1554.97C956.266,1549.72 954.934,1549.35 952.374,1549.76M755.715,1553.1C754.734,1553.67 746.977,1556.79 738.478,1560.04C703.107,1573.55 691.454,1583.65 690.233,1601.87C689.097,1618.83 707.831,1629.87 727.069,1623.57C732.789,1621.7 733.245,1621.9 734.882,1627C740.923,1645.82 762.625,1653.76 775.53,1641.87C788.241,1630.15 789.008,1613.61 778.287,1582.5C775.823,1575.35 772.958,1566.61 771.921,1563.08C768.958,1553.01 762.602,1549.09 755.715,1553.1M551.5,1562.84C537.893,1569.34 534.906,1587.41 544.846,1603.09C547.645,1607.5 547.645,1607.5 541.492,1613.5C511.466,1642.78 543.843,1673.19 582.174,1651.71C585.653,1649.76 593.9,1644.41 600.5,1639.83C607.1,1635.24 614.628,1630.14 617.229,1628.5C627.029,1622.32 626.523,1619.97 610.849,1598.88C585.805,1565.2 568.517,1554.7 551.5,1562.84M1314.15,1593.16C1296.67,1596.24 1288.23,1609.78 1279.43,1648.87C1273.04,1677.23 1272.95,1676.96 1290.17,1680.04C1295.85,1681.06 1304.33,1682.6 1309,1683.45C1336,1688.41 1347.7,1686.89 1361.97,1677.99C1368.52,1672.04 1372.79,1654.54 1366.82,1648.2C1364.2,1643.73 1353.51,1636.2 1347.22,1634.4C1344.07,1633.49 1341.22,1632.6 1340.88,1632.4C1340.54,1632.2 1340.69,1629.71 1341.21,1626.86C1344.9,1606.56 1331.66,1590.08 1314.15,1593.16M1117.5,1624.38C1101.63,1631.89 1096.51,1651.54 1102.88,1680.5C1103.97,1685.45 1106.01,1694.9 1107.4,1701.5C1110.11,1714.28 1112.34,1718 1117.32,1718C1120.34,1718 1153.76,1709.49 1163,1706.36C1205.28,1692.07 1204.64,1648.37 1162.19,1650.15C1153.74,1650.5 1153.74,1650.5 1152.53,1646.5C1146.74,1627.27 1131.61,1617.71 1117.5,1624.38M643.648,1695.97C617.912,1704.16 623.839,1744.65 657.011,1787.25C662.351,1794.11 700.344,1772.31 715.963,1753.43C739.189,1725.35 710.994,1692.45 681.581,1713.31C678.662,1715.38 678.662,1715.38 677.137,1712.94C669.611,1700.9 653.619,1692.8 643.648,1695.97M890.205,1720.15C886.743,1720.64 877.293,1723.32 869.205,1726.09C861.117,1728.87 851.023,1732.28 846.773,1733.68C831.563,1738.69 831.404,1739.67 841.61,1765.35C854.397,1797.53 859.977,1805.91 872.807,1812.23C895.465,1823.38 915.214,1803.62 906.619,1778.39C904.538,1772.29 904.532,1772.33 907.628,1771.56C914.233,1769.9 924.908,1760.95 928.453,1754.09C935.827,1739.83 924.935,1723.68 905.526,1720.09C898.987,1718.88 899.057,1718.88 890.205,1720.15M1245,1749.08C1201.88,1753.73 1195.55,1798.3 1237.27,1803.51C1240.42,1803.91 1243.02,1804.52 1243.05,1804.87C1244.52,1824.33 1251.04,1836.09 1261.98,1839.01C1280.05,1843.82 1295.88,1827.08 1298.87,1800C1304.81,1746.21 1301.4,1742.99 1245,1749.08M1026.9,1785.99C1019.21,1790.06 1013.46,1799.39 1011.5,1811C1010.4,1817.5 1010.4,1817.5 1002.95,1818.12C962.508,1821.52 965.878,1864.61 1007.2,1872.48C1032.51,1877.3 1062.54,1877.24 1064.41,1872.36C1065.79,1868.79 1066.34,1822.7 1065.09,1815.5C1061.15,1792.65 1042.12,1777.95 1026.9,1785.99M580,1840.26C580,1844.82 604.574,1873.93 621.5,1889.41C631.228,1898.32 637.61,1899.13 651.103,1893.22C675.063,1882.71 669.138,1852.61 641.424,1844.05C629.329,1840.31 580,1837.27 580,1840.26M781,1847.66C773.6,1850.25 764.341,1857.63 761.345,1863.34C759.984,1865.93 759.709,1866.05 758.151,1864.64C745.32,1853.03 721.859,1855.56 714.844,1869.31C704.889,1888.82 718.453,1906.72 767.85,1939.25C771.604,1941.72 776.604,1941.5 779.182,1938.75C785.883,1931.6 807.54,1894.05 809.89,1885.5C816.31,1862.14 800.159,1840.98 781,1847.66M1147.58,1864.33C1142.34,1869.57 1144.09,1922.05 1149.93,1934.62C1163.8,1964.47 1195.8,1958.73 1199.88,1925.66C1200.5,1920.6 1200.5,1920.6 1208.5,1919.42C1253.04,1912.84 1242.61,1869.01 1195.34,1864.1C1169.66,1861.43 1150.39,1861.52 1147.58,1864.33M929,1914.66C917.369,1916.93 909.26,1921.26 887.5,1936.79C862.471,1954.66 862.858,1951.54 882.5,1977.12C905.606,2007.2 918.675,2015.72 936.171,2012.07C954.149,2008.33 959.335,1985.23 946.003,1968.28C943.936,1965.65 943.936,1965.65 948.957,1961.26C972.573,1940.6 958.959,1908.81 929,1914.66M1021.81,1991.34C1001.65,1997.03 998.515,2019.33 1015.53,2036.03C1019.87,2040.29 1019.87,2040.29 1016.47,2044.74C990.165,2079.19 1029.72,2105.79 1062.58,2075.75C1070.33,2068.67 1094.75,2041.64 1096.13,2038.62C1098.58,2033.24 1097.46,2031.97 1071.11,2010.22C1050.23,1993 1035.67,1987.42 1021.81,1991.34M827.5,2007.93C816.968,2010.5 810.304,2021.73 802.167,2033.39C799.291,2037.51 800.492,2034.49 803.882,2038.99C804.058,2039.22 809.883,2042.93 817.422,2047.71C830.36,2055.91 848.346,2067.24 851.5,2069.49C863.763,2078.26 882.864,2087.29 886.754,2080C894.627,2065.24 882.335,2047.71 862.364,2045.23C856.5,2044.5 856.5,2044.5 855.802,2036.08C854.175,2016.44 842.056,2004.39 827.5,2007.93M1193.76,2040.42C1186.54,2042.97 1182.33,2045.17 1163.5,2056.27C1143.8,2067.88 1144.17,2067.59 1143.44,2071.46C1142.96,2074 1143.29,2075.76 1144.64,2077.91C1145.66,2079.53 1149.2,2085.17 1152.5,2090.43C1159.22,2101.13 1159.76,2101.46 1162.46,2096.44C1163.51,2094.49 1165.4,2091.78 1166.66,2090.42C1167.92,2089.06 1168.95,2087.73 1168.95,2087.46C1168.96,2086.91 1170.61,2084.84 1173.13,2082.2C1174.03,2081.27 1176.46,2077.8 1178.54,2074.5C1180.62,2071.2 1182.62,2068.28 1182.99,2068C1183.84,2067.35 1202,2039.19 1202,2038.52C1202,2037.66 1200.79,2037.94 1193.76,2040.42" transform="matrix(0.137457,5.08194e-05,-5.08194e-05,0.137457,65.3696,-7.49122)" style="fill: rgb(183, 213, 228);"/></g></svg>