<svg xmlns="http://www.w3.org/2000/svg" xmlns:xlink="http://www.w3.org/1999/xlink" preserveAspectRatio="xMidYMid meet" version="1.0" viewBox="-0.6 -0.7 186.2 575.4" zoomAndPan="magnify" style="fill: rgb(93, 137, 165);" original_string_length="3739" width="316.71849137752287px" height="979.1028631294389px"><g id="__id66_s10hvay1ww"><path d="m169.59,400.82c-9.39,4.14-19.88,4.64-29.99,4.78-11.48.16-22.97.36-34.44.54-5.09.09-10.17.16-15.26.23-12.67.2-25.34.36-38.01.41-12.24.05-25.3-1.09-34.8-9.68-3.82-3.47-6.84-8.09-7.82-13.21-1.07-5.74.33-11.53,3.18-16.55,6.25-11.05,17.68-16.77,27.13-24.59,2.36-1.94,4.79-4.04,6.62-6.5,1.66-2.24,2.69-4.82,3.31-7.52,1.25-5.54.79-11.34.66-16.97-.05-2.37,3.64-2.37,3.69,0,.06,2.7.17,5.42.15,8.12-.02,5.42-.59,10.99-3.15,15.85-2.68,5.11-7.62,8.92-12.13,12.34-9.19,6.95-20.48,13.25-24.77,24.64-1.93,5.1-1.88,10.62.71,15.48,2.41,4.51,6.4,8,10.89,10.37,11.38,6.02,25.49,4.56,37.9,4.39,14.23-.2,28.45-.38,42.68-.58,13.39-.18,26.85,0,40.24-.63,9.12-.43,19.33-1.65,26.89-7.26,3.71-2.75,6.39-6.71,7.45-11.22,1.29-5.46-.05-11.17-2.4-16.16-5-10.63-13.92-18.09-21.61-26.66-7.18-8-13.74-17.53-13.26-28.75.1-2.37,3.78-2.37,3.69,0-.12,2.74.18,5.42.93,8.06,3.1,10.86,12.07,19.16,19.73,26.96,8.07,8.22,16.23,18.59,17.04,30.55.73,10.57-5.84,19.43-15.25,23.57Zm-115.72-89.06c-.1-20.18.13-40.35.35-60.53.24-22.1.53-44.2.66-66.3.06-9.25.14-18.5.02-27.75-.13-10.12-.85-20.67-5.01-30.03-1.95-4.39-4.81-8.41-8.59-11.41-3.82-3.03-8.87-4.5-13.26-6.57-8.52-4.02-17.89-9.07-22.18-17.92-5.32-10.99-.43-24.16,6.41-33.26,3.83-5.09,8.52-9.49,13.32-13.64,4.79-4.15,9.69-8.18,14.61-12.17C58.54,17.31,79.63,3.08,104.23,3.71c10.57.27,21.38,3.38,29.56,10.29s12.86,16.56,15.27,26.79c2.52,10.73,2.75,21.88,2.52,32.84-.28,13.87-.91,27.74-1.38,41.61-.99,29.06-1.98,58.13-2.96,87.19-.98,28.96-1.97,57.92-2.95,86.88-.24,7.06-.48,14.12-.72,21.18-.08,2.37,3.61,2.37,3.69,0,1-29.47,2-58.95,3.01-88.42,1.01-29.57,2.01-59.15,3.02-88.72.5-14.74,1-29.47,1.5-44.21.41-11.95,1.04-23.95-.06-35.88-.99-10.76-3.36-21.68-9.07-30.99-5.72-9.32-14.5-16.1-24.87-19.51s-21.92-3.49-32.63-1.23c-12.01,2.53-23.17,8.3-33.31,15.09-10.63,7.12-20.5,15.42-30.23,23.71C14.92,48.59,5.51,57.97,1.65,70.44c-1.8,5.83-2.27,12.2-.69,18.13,1.24,4.65,3.89,8.79,7.27,12.18,7.2,7.2,16.95,11.27,26.13,15.28,2.35,1.02,4.3,2.14,6.16,3.93,1.73,1.66,3.19,3.55,4.41,5.62,2.54,4.32,3.96,9.19,4.86,14.09,1.77,9.65,1.45,19.58,1.45,29.35-.01,21.5-.28,43-.52,64.5-.24,21.74-.52,43.48-.56,65.22,0,4.34,0,8.69.02,13.03.01,2.37,3.7,2.38,3.69,0h0ZM75.07,37.16c9.42-6.6,22.29-7.63,32.73-2.83,10.28,4.73,16.94,14.85,18.03,26.03.61,6.27-.45,12.63-3.4,18.22-1.11,2.1,2.08,3.96,3.18,1.86,5.8-11.01,5.24-24.73-.92-35.47-6.41-11.16-18.69-17.49-31.45-17.29-7.12.11-14.2,2.2-20.04,6.3-1.93,1.35-.09,4.55,1.86,3.18h0Zm51.14,265.08c-2.04,19.68,4.06,39.73,16.47,55.11,1.49,1.85,4.08-.78,2.61-2.61-11.8-14.64-17.32-33.83-15.39-52.5.24-2.36-3.44-2.34-3.69,0h0Zm-36.64,268.37c-9.94-2.1-17.46-10.58-19.78-20.3-1.17-4.88-.9-9.99.98-14.66,2.13-5.28,5.71-9.88,8.8-14.61,2.99-4.57,5.7-9.47,6.27-14.99.55-5.33-1.55-9.56-4.78-13.64-2.95-3.74-7.04-7.26-8.65-11.87-2.03-5.8,1.22-12.23,4.36-16.96,2.19-3.29,4.88-6.21,7.05-9.5,2.05-3.08,3.58-6.48,4.88-9.94,2.15-5.71,3.83-11.51,6.91-16.74h-4.17c-2.09,3.94-3.62,8.13-5.11,12.44-1.12,3.27-2.32,6.5-3.97,9.54-1.73,3.17-4.01,5.89-6.18,8.74-3.99,5.26-7.72,11.26-8.01,18.03-.25,5.63,2.75,9.92,6.22,14.05,3.01,3.58,7.32,7.53,7.8,12.47.57,5.78-2.3,11.07-5.31,15.77-3.16,4.93-6.8,9.6-9.14,14.99-2.2,5.07-2.81,10.48-1.9,15.94,1.95,11.67,11,22.33,22.77,24.82,2.31.49,3.29-3.06.97-3.56Z" style="fill: inherit;"/></g><g id="__id67_s10hvay1ww"><path d="m108.42,427.4h-30.76l5.86-9.13,6.37-11.89c5.09-.07,10.17-.15,15.26-.23l3.27,21.26Z" style="fill: inherit;"/></g></svg>