<svg xmlns="http://www.w3.org/2000/svg" xmlns:xlink="http://www.w3.org/1999/xlink" preserveAspectRatio="xMidYMid meet" version="1.0" viewBox="-1.0 -0.5 337.5 491.7" zoomAndPan="magnify" style="fill: rgb(0, 0, 0);" original_string_length="10112" width="48.9050688050769px" height="71.34691735488673px"><g id="__id13_s9b4f5poj"><path d="M332.6,379.5c-1.8,6.2-5.8,12.2-12.1,14.5-6.5,2.6-15.1-1.2-16.7-8.3-4.9,1.8-10.3-1-11.9-5.8-4.3-10.9-5.7-22.8-9.4-33.9.6,13,1.4,26.3-2.7,38.9,4.9,17.3,5.1,35.6,3.7,53.5-.3,4.1-1.4,8.1-2.3,12.2,7.9,4.3,15.6,11.6,15.7,21.2-.1,7.4-7.4,12.1-14,13.6-10.9,2.9-22.2,1.2-33.2,3-9.4.4-19.8-1.2-26.9-8-3.8-3.8-5.5-9.1-6.4-14.2-2.6-15.4-3.2-31-2.9-46.6-9.7,1.7-19.6.8-29.2-.7-.2,10.1-2.7,20.1-4.7,30-2.4,9.3-4.5,19.1-10.2,27.1-3.4,5-8.2,9.2-14,11.2-6.5,2.3-13.7,4-20.5,2.1-11-.2-22.3,0-32.8-3.8-5.8-2.2-11.3-7.5-10.6-14.2.6-8.4,7.4-14.7,14.2-18.7-4-10.4-2.8-21.8-2.9-32.6,1.4-13.1,2.6-26.8,8.7-38.8.6-1.2-.3-2.5-.5-3.7-4.5-15.1-4.4-31.2-3-46.8,1.1-12,3.4-23.9,7.5-35.3-4.9-.6-9.7-1.8-14.6-2.8-24.1-6.8-46.8-19.4-64-37.8-6.2-6.4-10.9-14-16.3-21.1-5.2-6.9-10.7-13.6-14.5-21.4-4-8.2-7.1-17.3-5.6-26.4.9-6.5,6.3-13,13.3-12.9-.4-5.6,1-11.8,5.7-15.3,3.1-2.3,7.1-2.3,10.6-1.5,1.3-5.4,7.4-8.7,12.5-6,9.4,4.9,13.4,15.6,16,25.2,1.9.3,4-.4,5.9.5,3.6,1.4,5.1,5.4,6.2,8.8,3.1,10.4,3.1,22.1,10.1,31,7.9,9.4,20.4,13.5,32.2,15-7.2-4.8-14.3-9.8-20.3-16.1-6.2-6.9-11.8-14.6-14.9-23.3-3.4-9-3.6-18.8-3.4-28.2.3-7.3,2.3-14.3,3.6-21.5,1-5.6.9-11.3,1.9-16.8,2.8-16.4,7.2-32.6,14.4-47.6.4-.8.8-1.6.9-2.5-9.5-1.8-17.4-8.6-22.2-16.8-7.4-12.4-6.3-29.2,2.7-40.5C82.3,7.3,93.9-.2,106.3.8c14,1.5,25.9,12.9,29.5,26.4,19.9-11.5,42.1-19.2,65-21.8,7.8-.9,15.8-.4,23.5,1.4,1.5.6,2.6,3.1,1.1,4.3-1.5,1.5-3.5,2.5-4.8,4.2,11.4-.6,22.5,3.1,32.3,8.5,2.1,1,3.9,2.5,6.1,3.3,1.4-9.9,9-17.8,17.6-22.2,4.8-2.7,10.3-4.2,15.8-4.7,7.4-.7,15,.9,21.3,5,10.8,6.3,17.5,18.8,17,31.3-.2,11.1-5.8,21.8-14.1,29.1-4,3.6-9.3,5.5-14.6,5.7,9,16.8,15.6,35,17.7,54,.6,4.6.5,9.3-1.1,13.6,1.1,1.6,2.5,3.1,3.1,5.1,4.3,11.5,3.9,24.2,1.4,36-3.1,14.3-10.1,27.9-20.8,38.1-11.3,10.7-25.9,17.4-40.9,21,6.9,3.3,13.4,7.4,19.3,12.2,12.9,11.1,23,25.2,31.6,39.9,8.8,15,14.9,31.5,19.4,48.3,3.1,13.1,4.8,27.1,1,40.3Z" style="fill: rgb(102, 81, 59);"/></g><g id="__id14_s9b4f5poj"><path d="M291.5,7.7c15-2.2,29.8,10,31.1,25,1.8,14.9-8.6,29.7-22.5,34.6-2-1.6-3.2-4.2-4.6-6.4,3.8-1.1,6.9-3.8,9.1-6.9,4.3-5.7,7.1-13.2,5.8-20.4-1.2-6.4-7.6-10.9-14-10.4-9.3.5-16.9,7.7-20.6,15.9-2-1.5-3.9-3.1-5.8-4.7,1.1-2.7,3.2-4.8,4.2-7.5.6-1.1-.8-2.4-1.9-1.9-2.8,1.2-4.7,3.8-6.4,6.3-.9,0-3.2-1.1-2.3-2.3,5.1-11,15.7-19.7,27.8-21.2ZM281.1,17.8c-1.3.6-2.7,1.4-3.7,2.5-.8.9-.2,2.6,1.2,2.3,1.8-.6,3.3-1.8,4.6-3.1.6-1.4-1-2.4-2.1-1.6ZM100.4,8.1c4.1-.9,8.4-.4,12.3,1.4,8.8,3.8,15.5,11.9,17.8,21.2-1,1.1-2.3,2-3.5,2.7-1.8-2.8-3.5-5.7-6-7.9-.9-1-3-.5-2.5,1.1,1.4,3.3,3.3,6.4,5.5,9.3-1,1.2-2.1,2.2-3.4,3.2-2.9-8.7-12.7-14.8-21.8-12.6-10,2.7-15,15.8-10,24.7,2.9,5.1,8.1,8.7,13.7,10.2-1.5,2.9-3.3,5.6-4.8,8.5-6.4-1.3-11.9-5.7-16.1-10.5-6.3-7.2-8.8-17.4-6.5-26.7,1.6-6,5.5-11.1,9.7-15.5,4.2-4.4,9.7-7.8,15.7-9ZM106.9,17c-1,.7-.6,2.5.5,2.9,2.4,1.1,4.8,2.2,7.3,3,1.5.5,2.3-1.6,1.2-2.5-2.3-2.3-5.7-4.5-9-3.3ZM211.1,10c2.4-.2,4.8-.3,7.2-.2-3.9,3.2-7.2,7.2-8.8,12.1,1.2,2.7,4.5.2,6.4-.5,7.7-1.6,15.7.2,23,2.8,10.2,3.9,19.7,9.6,28.5,15.9,11.2,9.2,20.7,20.6,27.9,33.3,8,14.8,13.9,30.8,16.6,47.4,1,6.1,1,12.3,2.2,18.4.9,7.2,3,14.2,3.1,21.5.5,18.5-5.5,37.6-18.5,51-10,10.4-23.5,16.9-37.3,20.6-5.4,1.4-11,1.8-16.6,2,1.1-1.2,2.4-2.2,3.6-3.3,9.1-8.7,13.6-21.9,12.2-34.4-1-9.5-4.9-18.8-11.4-25.8-9.2-10.1-22.2-16.5-35.7-18.2-5.4-.1-11.2-1.6-16.4.6-3.5,1.5-7.5,1.3-11.2,2.2-19.5,3.5-36.8,18.9-40.9,38.5-3.2,14.4.7,30.7,11.5,41-4,.1-8-.2-11.9-.2-16.4-2.4-31.4-10.7-43.6-21.7-9.5-8.9-17.4-20.4-19.1-33.6-.7-6.4-.8-12.8-.3-19.2.7-7.2,2.9-14.2,3.6-21.4,1.4-21.9,7.5-43.4,17.3-62.9,6.8-13.2,15.8-25.3,26.9-35.2,13.2-10.7,29-17.4,45-22.7,11.9-3.5,24-6.7,36.4-7.9ZM156.9,38c-3.1,1.5-6,3.2-9.2,4.4-1.7.4-1.3,3.2.6,2.8,3.5-1.5,6.9-3.3,10.2-5.2,1.6-1.1,0-3.1-1.6-2ZM139.2,48.3c-6.8,5.7-14.2,11.2-19.1,18.7-.8,1.3-2.6,2.6-1.9,4.3.9,1,2.1.2,2.8-.6,6.5-6.7,13.7-12.8,19.8-20,1.2-1,0-3.2-1.5-2.4ZM253.6,71.6c-2.6.3-5.2,1.1-7.6,2.1-1.4.4-1.1,2.8.5,2.7,9-.2,17.4,3.6,25.3,7.6,1.5,1,3-1.2,1.9-2.4-5-5.6-12-10.8-20-10ZM149.4,73c-6.7,1.4-11.9,6.5-15.3,12.2-.8,1.6-2.7,3.2-1.9,5.1.8.7,2,.2,2.6-.6,6.2-7.4,15.9-12.3,25.6-11.8,1.4,0,1.9-2.2.5-2.8-3.5-1.8-7.6-2.7-11.6-2.1ZM253.1,120.2c-12.3,3.5-15,22-5.7,30.1,3.8,3.2,9.9,2.6,13.4-1,3.6-3.6,4.7-9,4.8-13.9.1-4.5-.8-9.4-4.2-12.7-2.1-2.2-5.4-3.1-8.3-2.5ZM152.2,124c-5.1,1.2-8.5,5.9-9.8,10.7-2.5,7.5-.6,16.8,6,21.7,4.3,3.4,10.9,2.4,14.4-1.7,5.5-6.5,5-16.2,1.6-23.6-2-4.6-7-8.2-12.2-7.1ZM306.4,170.7c-1.5,3.5-3,7.1-4.2,10.7-.6,1.9,2.6,2.3,2.8.5,1-3.4,2.6-6.6,3.5-10,.5-1.3-1.2-1.9-2.1-1.2ZM89.2,172c-1.9,1.1-.5,3.8-.6,5.5.4,6.8,4.6,12.4,8.2,17.9.7,1.6,3.5.8,2.8-1-2.6-6.4-5.8-12.6-7.7-19.3-.4-1.3-.8-3.6-2.7-3.1ZM298,190.3c-6.7,7.2-13.4,15-22.8,18.9-2,.4-1.5,3.7.6,3.3,4.1-.9,8.1-2.4,11.6-4.7,5.5-3.9,9.3-9.7,12.5-15.5.9-1.4-.6-3-2-2ZM36.8,155.6c2.2-.7,4.3,1,5.9,2.3,5.8,5.2,8.4,12.8,10.9,20-5.8,5.3-9.3,12.6-11.8,20-.3,1.1-.9,2.5,0,3.5.9.3,1.9.1,2.3-.8,2.7-6.3,6.4-12.4,11.4-17.1,2.1-1.9,6.7-3.8,8.3-.3,4.2,9.6,3.9,20.7,8.6,30.1,4,8.9,12.3,15,21.1,18.6,9.2,3.5,19,5.7,28.8,5.2,1.7,0,3.4-.4,5.1.2,7.8,2.8,16,5.2,24.4,4.4,5.8-.8,11.5.7,17.2.8,17.3.3,34.7.6,51.9-1.1,6.4-.7,12.9-.1,19.3-.6,3.5,0,7.1-.6,10.4.8,10.9,3.2,20.7,9.5,29.1,17.2,20.9,19.8,35.2,45.9,43.4,73.4,4.4,14.3,7,30,2.8,44.7-1.4,4.8-4.7,10.1-10.2,10.5-3.1-.3-6.8-1-8.7-3.7,4.7-4.5,6.4-11.9,2.9-17.7-.4-1.7-3.4-1.8-3.1.2.3,4.8-.8,10.2-4.9,13.2-1.3,1-2.9-.2-3.3-1.5-2.1-4.5-2.7-9.5-4-14.3-3-14.2-8.4-27.7-14.2-41-2.6-5.7-3.2-12-4.9-18-2.9-10.8-6.2-21.8-12-31.5-.8-1.7-3.4-.5-2.6,1.2,9.1,29.9,16.9,60.8,15.9,92.3-.4,10.2-2.7,20.2-6,29.8-.7,1.3.3,3.1,1.9,2.3,2.1-2,2.9-5.1,4.6-7.4.5,8.7.3,17.4.4,26.2.2,10.3-1.2,20.5-1,30.8-2.5-.2-4.9-1.3-7.4-.8-1,.7-.6,2.2.6,2.4,5.1,2.2,9.6,5.5,13.9,9,3.8,3.4,7.6,8,7.1,13.4-1.3,4.3-6.2,6.1-10.1,7.2-7.5,1.9-15.2,1.6-22.8,2.1-7.7.1-15.6.5-23.1-1.8-3.6-1.2-7.3-3.3-9.2-6.7-2.7-4.8-3-10.5-3.7-15.9-1.2-12.8-2.8-25.6-5.2-38.3,4.8-1.5,10-3.3,13.3-7.3,1.1-1.1,0-3.2-1.6-2.5-4.5,1.6-9.2,2.5-14,2.9-16.2,2.6-32.5,0-48.5-2.3-1.5-.1-1.6,2.4-.2,2.8,4.5,2.1,9.2,4,14.1,5.2-4,13.2-4.8,27.3-9.2,40.4-2.4,8.3-6.5,16.9-14.3,21.2-6.3,3.6-13.8,3.2-20.7,4.2-9.3,0-18.7,0-27.8-2.3-3.8-1-7.9-2.9-9.7-6.7-1.5-3.5.5-7.3,2.6-10.1,5.7-7.1,14.8-10.3,23.5-11.6,1.1,0,1.7-1.7.8-2.3-4.7-1.6-9.6-1-14.3,0-1.3-13-2.2-26.1-.7-39.1,1-8.7,1.6-17.5,3.9-26,2.4,2.2,3.8,5.8,6.8,7.4,2.6.3,1.5-2.8.8-4.1-6.2-13.4-9.1-28.3-8.6-43.1.7-21.7,4.2-43.9,14.7-63.1.8-1.4-.6-2.9-2-2.1-3,2.9-5.3,6.4-7.4,10-6-1.9-12.3-2.7-18.3-4.7-11.9-3.7-23.4-8.5-34.1-15-13.4-8.3-25-19.4-34.2-32.1-7.9-10.8-16.4-21.5-21.6-34-2.8-6.5-3.5-14.1-1.2-20.8.9-2.8,3.5-5.6,6.7-4.8,2.5,2.8,4.9,6.1,8.3,8,1.3.9,3.1-.8,2.1-2.1-2.1-3.2-3.5-6.7-4.7-10.3-1.1-4-.5-9,3.2-11.5,1.4-1.1,3.7-2.7,5.3-1.3.4,5.6,2.7,11.3,6.9,15.2,1.7.7,2.3-1.3,1.6-2.5-2.2-4.5-3.4-9.7-2.9-14.8.2-1.5.7-3.1,1.9-4.1ZM53.6,245.7c-1.1.7-.4,2.2.2,3,5.6,8.6,15.4,13,24.5,17.1,1.8,1.2,3.6-1.5,1.7-2.6-7.1-5-13.6-11-21.4-15.1-1.7-.8-3-2.6-5-2.4ZM197.1,263.1c-4.1.3-6.9,3.8-10.8,4.5-6.3,1.6-12.2,4.4-17.4,8.3-10.1,7.7-18.9,17.4-24.1,29.2-14,30.1-4,70.1,24.3,88.4,8.9,5.5,19.2,9.2,29.7,9.1,13.9.5,27.5-5.3,37.5-14.8,11.4-10.8,18.5-25.8,20.5-41.3,2.3-22-3.2-44.9-16.1-62.9-6.5-8.6-15.2-16-25.6-19.3-5.8-1.9-12-1.9-18-1.2ZM84.1,267.8c-1,.4-.8,2.2.3,2.6,3,1.6,5.9,3.4,8.9,5.1.9.4,2,1.2,3.1.7.7-.8.4-1.9-.5-2.3-2.9-1.7-5.9-3.4-8.8-5.2-.9-.5-1.8-1.2-2.9-.9ZM297,296.8c-1.2.3-1.1,1.8-.6,2.6,3.1,7,6.6,13.8,10.3,20.5.6,1.1,1.5,2.9,3.1,2.2.6-.8.5-1.8.1-2.6-3.2-7.8-6.3-15.9-11.8-22.4-.3-.3-.7-.5-1.2-.3ZM311.5,329c-1.2.8-.5,2.4-.1,3.5,1,2.5,1.7,5.1,2.8,7.5.4,1.4,2.7,1,2.3-.5-.5-3-1.9-5.8-2.5-8.8-.1-1.2-1.2-2.4-2.5-1.8ZM171.4,421c-1,.3-1.3,1.3-1.6,2.1-1.9,6-3.3,12.1-4.6,18.3-.2.9-.4,2.5.9,2.6,1.5.2,1.8-1.7,2.2-2.8,1.7-6,3.9-11.9,5-18,.4-1.2-.7-2.6-1.9-2.3ZM227.5,428.5c-.8,0-.8,1.1-.8,1.7-.2,5.5,1.6,10.7,2.8,16,.3,1,.6,2.5,2,2.3,1.4,0,1.1-1.9,1.1-2.8-.6-5.3-1.3-10.7-3-15.8-.2-.9-1-1.8-2-1.4ZM231.1,452.3c-.9,2.1.2,4.6.4,6.8,0,1.4,2.3,1.6,2.4.2.1-2.1-.3-4.1-.7-6.1,0-1-1.3-1.4-2.1-.9Z" style="fill: rgb(191, 156, 119);"/></g><g id="__id15_s9b4f5poj"><path d="M294.7,29.7c3.9-1,8.6,1.3,9.4,5.5,1.1,5.9-1.5,11.9-5.1,16.5-1.8,2.2-3.2,4.9-5.6,6.6-4-5.1-8.5-10-12.8-14.8,2.8-6,7.1-12.4,14.1-13.7ZM93.4,42.9c-.4,4.5,2.7,8.2,5.8,10.9,1.8,1.5,3.3,3.5,5.5,4.3,3.7-5.4,7.9-10.4,12.2-15.4-3.3-5.3-8.6-11-15.5-9.9-4.7.8-7.5,5.6-8,10ZM160.3,179.1c-8.7,12.2-10.8,29.1-3.9,42.6,2.4,5.4,6.6,10,11.7,13.1.8.5,1.7.7,2.7.7,16,.2,32.1-.1,48.1-.5,10.9.5,22.1-4.9,28.1-14.1,9-13,7.9-31.5-1.6-43.9-4.8-6.1-10.9-11.3-18-14.5,1.7,6.5-3,12.4-7.9,16.1-2.5,2.1-5.4,3.4-8.5,4.2-.3,4.3,3.8,7.5,7.3,9.2,7,2,14.9.6,21-3.4,1-.7,2.5-1.5,3.4-.3.6,2.1-.8,4.2-2,5.9-2.6,3.6-7.1,4.6-11.2,5.6-1,13.8-16.5,23.8-29.5,19.4-9.1-3.1-16.7-10.6-20-19.7-.5-1.6-1.9-2.5-3.3-3.2-3-1.5-5.6-3.8-7.6-6.5-.9-.9,0-2.6,1.2-2.4,8.2,3.1,16.8,6.4,25.7,6.5,6,0,8.8-6.2,10.2-11.1-6.4-1.2-12.3-5-15.8-10.5-2.1-3.5-2.1-7.7-1.3-11.5h-.4c-11.2,2.5-21.4,9.2-28.3,18.3ZM161.8,290c-8.9,9.7-14.7,22.1-16.6,35.1-2.9,22.1,5.4,46.2,23.4,60,8.9,6.7,19.9,10.8,31.1,10.4,10.2.1,20.3-3.7,28.2-10.1,12.6-10,20.3-25.4,22.1-41.3,1.8-19.6-2.8-40-14-56.3-5.8-8.1-13.9-15-23.6-17.9-4.9-1.6-10.2-1.3-15.3-1.1-14.3,1-26,11-35.3,21.2ZM156.9,342.2c3,8.8,7.8,16.8,12.5,24.8,1.1,1.3-.7,3.2-2,2.1-3.4-3.5-6.3-7.5-9-11.6-3-4.6-3.8-10.1-4.8-15.3-.2-.9-.2-2.1.9-2.5,1.5-.4,2,1.4,2.4,2.5ZM179.2,375.5c2,2.3,4.5,4.4,6.1,7.1.6,1.6-1.6,1.9-2.4.9-2.3-2.5-4.8-4.8-7.6-6.9-1.3-.7-1.9-3-.2-3.7,1.8-.3,2.9,1.5,4.1,2.6Z" style="fill: rgb(224, 200, 159);"/></g><g id="__id16_s9b4f5poj"><path d="M256.8,125.9c2.3-.2,4.2,2.1,3.4,4.3-.5,2.6-4.1,3.6-5.9,1.6-2.1-2-.5-6.1,2.5-5.9ZM154.9,137.2c2.2,1.3,5.1-.8,5-3.2.3-2.5-2.7-4.4-4.9-3.2-2.3,1.2-2.4,5.1,0,6.4ZM203.7,162c-.2,1.8,2,2.7,3.5,2.5,2.5-.4,5-.5,7.4-1.1,1.3-.2,1.3-2,.5-2.7-2-2-5.1-2-7.7-1.7-1.6.2-3.5,1.2-3.7,3Z" style="fill: rgb(255, 255, 255);"/></g><g id="__id17_s9b4f5poj"><path d="M200.8,204.8c4.1-.7,8.3-.4,12.4.2,2.5.3,5,3.1,3.8,5.6-.4,2-2.6,2.7-4.3,3.1-4,1.1-8.3,1.2-12.4.4-2.6-.6-4.5-3.5-3.7-6.2.6-1.8,2.4-2.8,4.2-3.2Z" style="fill: rgb(228, 150, 140);"/></g></svg>