<svg xmlns="http://www.w3.org/2000/svg" xmlns:xlink="http://www.w3.org/1999/xlink" preserveAspectRatio="xMidYMid meet" version="1.0" viewBox="-2.1 -2.4 492.5 290.6" zoomAndPan="magnify" style="fill: rgb(0, 0, 0);" original_string_length="7538" width="72.55530562442792px" height="42.87358968716197px"><g id="__id9_s9b4f5poj"><path d="M489.8,237.6c-.9,7.8-7.3,14.4-14.8,16.3-3.3,1-6.7.9-10.1,1,.4,5.8-.9,12.2-5.2,16.4-7.9,7.8-20,9.9-30.5,7.2-10.7-2.7-21.8-7.9-27-18.1-2.6,2.1-5.2,4.4-8.2,5.9-14.9,7.8-33.1,9.3-48.8,3.4-8.2-2.9-15.5-7.8-21.7-13.9-4.9,1-10.1,2.1-14.9,0-3.1,7.9-8,15.6-15.7,19.8-10,5.8-21.7,7.8-33,9.1-17.5,1.5-35.3,1.5-52.7-1.6-6.9-1-13.5-3.9-19.2-7.9-16.4,8.8-35.7,13-54.2,9.7-5.5-1.1-10.8-3.3-15.7-6-1.3-.9-2.5.6-3.7.9-10.5,2.9-21.6,1.7-32.1-.7-10.4-2.3-20.4-7.1-28-14.7-3.7-3.9-7.1-8.8-7.1-14.3-.4-8.7,6.6-17.4,15.5-18.1-7.4-8.3-13.8-17.6-18.3-27.9-10.1,2.5-20.7-.6-28.8-6.9-11.2-7.9-17.7-22.3-15.2-35.9,2.1-10.2,8.5-19.1,16.5-25.6,6.6-5.3,15.6-8.5,24-6.1,3.2-10.4,6.9-20.8,12.6-30.1,7.9-12.6,17.4-24.4,29.1-33.6,7.6-6,15.7-11.6,24.8-14.9-.6-7.2-1.3-14.7.7-21.8,3.8-13.3,13.6-26.4,27.9-28.8,18-2.8,37.2,8.8,42.9,26.1,2.1,6,1.8,12.5.8,18.7,7.3.2,14.8,1,21.6,4,14.3,5.5,27.7,13.7,38.6,24.7,10.3,11.4,17.6,25.3,21.5,40.2,6.1-5.5,13.5-9.4,20.8-13.1,7-3.3,14.1-6.6,21.4-9.2,26.7-9.3,56.8-9.5,83.3.7,16.9,6.1,32.8,15.4,44.7,29,.7.7,1.3,1.7,2.2,2.1,7.5-6.1,18.2-5.4,26.8-2.6,18.8,5.8,28.3,30.5,18.5,47.5-4.5,8.8-14.6,12.5-23.7,14-1.7,0-1.3,1.7-1.4,2.8,0,4-1.3,7.9-2.1,11.8,4.9.6,9.5,2.5,13.6,5.2,7,4.5,14.2,9.2,18.9,16.2,3.5,5.6,6,12.3,5.2,19Z" style="fill: rgb(102, 81, 59);"/></g><g id="__id10_s9b4f5poj"><path d="M136.7,8c14-2.3,29,6.2,34.6,19.2,1.7,4.7,3.6,9.6,3.3,14.7-.8,3.8-2.7,7.3-3.3,11.2-.2,1.9-1.9,3.6-1.3,5.4,2.9,1.5,6.2-.4,8.1-2.7,1.4-1.9,0-4.5,1.1-6.4,10,2.9,20.2,5.5,29.4,10.6,13.2,6.7,25.6,16,33.7,28.6,5.6,8.5,9.9,18,12.3,27.9,6.6,26.2,4.2,54.6-7.4,79.1-4.4,9.1-8.9,18.2-14.5,26.6-.7,1-1.3,2.2-2.5,2.8,0-5.3-1.8-10.4-4.3-15.1-5.1-9.1-13.2-16.8-23-20.7-9.9-3.7-21.3-3.2-30.8,1.5-11.2,5.8-21.3,14.6-27.4,25.8-3.9,4-7.6,8.4-10.1,13.5-1.6,3.1-1.5,6.6-2.7,9.9-3.1,9.5-2.3,20.6,3.3,29.1,2.1,3.3,5.1,5.8,7.8,8.6-13.8-.3-26.1-8.1-36.2-16.9-2.6-2.3-5-4.8-6.9-7.6-1.5-2.1-1.6-4.9-3.4-6.8-18.9-8.4-35-23.5-43.9-42.3-11.3-24.2-11.8-52.7-3.4-77.9,3.2-10.1,7.6-19.8,13.8-28.4,9.5-13.8,21.2-26.4,35.8-35,3.5-2.2,6.9-4.7,10.6-6.7,1.5,2,2.6,4.3,4.7,5.7,1.4.8,3-.8,2.2-2.2-2.5-5.4-2.6-11.4-2.5-17.2,0-7.5,1.9-15,5.9-21.3,3.7-6.3,9.6-11.7,17-13.1ZM127.6,21.9c-1.1,1.4-2.3,3-2.1,4.9,2.6,3.4,6.4-6.2,2.1-4.9ZM148.2,25.6c-6.5.3-11.6,5.6-13.6,11.5-1.4,3.7-.5,7.8-.8,11.7-1.9.8-4,.8-5.8,1.8-1.1,1-.1,2.9,1.4,2.6,10.6-.7,21.2.3,31.8-.9,1.8-.4,5.1.8,5.4-1.8-.2-2.4-3.5-2-4.8-3.5.3-2.7,1.1-5.4.7-8.1-.7-7.1-7.1-13.4-14.4-13.3ZM124,31.5c-3.5,2.9-4.3,8.5-2.9,12.8.7.4,1.8.4,2.2-.5,1.9-3.4,3.2-7.2,2.8-11.1,0-1.1-1.2-1.6-2.1-1.2ZM224.5,84.7c-1.1.5-1,2.1-.1,2.8,6.1,5.6,10,13.2,13.4,20.7.4,1.4,3,1.5,3.2-.1.4-9-5.4-17.2-12.7-22-1.1-.7-2.3-1.9-3.8-1.4ZM76.9,89.2c-2.2,2.2-3.9,5.1-5,8-.7,1.4,1.4,2.6,2.3,1.3,1.9-2.2,3.4-4.8,4.7-7.4.7-1.3-.7-2.7-2-2ZM66.9,105.9c-5.9,5.3-8.6,13.4-7.5,21.2.8,1.3,3,.7,3.2-.9,2.1-5.7,4.2-11.5,6.4-17.2.9-1.5,0-4.2-2.1-3.1ZM241.5,115.2c-.9.3-.6,1.7-.6,2.5.4,2.9.3,6,1.2,8.9.8.5,2.6.5,2.4-.9.1-3.2-.2-6.5-1-9.6,0-1-1.3-1.2-2-.9ZM137.1,117.4c-4.2.6-8.4,2.2-11.8,4.7-4.3,3.7-6.3,9.3-7.6,14.6-.1,1.6,2,1.7,2.6.6,5.6-7.8,14.1-12.8,22-17.7,1.1-3.3-3.4-2.6-5.3-2.2ZM177.8,142c-.9.6-.7,1.9-.8,2.8,0,4.7.3,9.6-1.2,14.2-2.3,5.4-6.7,9.6-11.2,13.3-2.1,1.8-4.9,2.3-7.5,3-1.5.2-1.6,2.4-.3,2.9,4.1,1.6,8.9,1.6,12.8-.5,6.6-3.5,12.3-9.3,14.6-16.5,1.4-6.3-.6-12.8-3.6-18.4-.4-1.1-1.8-1.6-2.7-.9ZM75,184.7c-3.3,3-7,6.3-7.5,11-.6,4.9-.6,9.9.3,14.8,0,1.7,2.5,2.1,3.1.7,2-7.8,1.9-16.3,6.3-23.4,1.4-1.6-.1-4.5-2.2-3.1ZM122.1,212.7c-1.8,1-2,3.4-2.9,5.1-2.7,7.3-8.6,13.5-15.9,16.2-2,.9-6.6-.4-5.9,3,7.3,4.3,17.3,1.5,22.5-4.9,3.6-4.9,4.3-11.2,4.4-17.1.2-1.2-.8-2.7-2.2-2.3ZM335.4,93.8c19.5-1.6,39.4,2,57.2,10.2,12.9,5.4,24.5,13.9,33.6,24.6,4.6,5.8,8.6,12,12,18.6,5.7,12.3,8.3,26.1,7.2,39.6-.7,6.6-3.3,12.8-5.5,19.1-.8,1.6-1.3,3.8-2.7,4.8-4.2-2.4-8.2-5.2-12.7-7-5.8-2.5-12.3-2.9-18.5-3.2-1.7-.3-2.6,2.4-.8,3,6,1.7,12.2,3.5,17.3,7.3,7.9,5.7,16,11.3,22.1,19.1,5.2,6.6,9.2,14.2,11.3,22.4.9,4.3,1.3,9.5-1.6,13.1-7.7,8.3-20.6,7.2-30.1,3.1-6.4-2.7-13-5.7-18.1-10.5-1.5-1,.7-2.9-.4-4.1-1.1-1-2.6-.1-3.7.4-5.5,2.9-11.4,4.6-17.1,7-15.9,6.2-34.7,4.1-48.6-5.8-5.7-3.9-10.5-9.4-12.6-16.1-3.4-10.2-1.1-21.4,3.5-30.8,6.4-13.5,16.1-24.9,24.9-36.9,1.8-2.6,4-5,6.3-7.3,1-.8.8-3.1-.8-2.8-12.7,6.5-21.1,18.6-29.9,29.3-8.7-1.8-18.1,1.2-23.8,8.1-2-2.9-4-5.9-6.8-8.1-1.4-.8-2.4,1-1.7,2.2,2.2,6.2,2.8,12.7,4,19.2,2.2,12.4,4.5,25.2,1.5,37.6-1.6,7.2-5.5,14.3-12,18.2-7.7,4.6-16.6,6.4-25.4,7.7-17.5,2.2-35.4,2-52.8-.5-6.1-.5-12.3-.7-18.3-2,18.3-11.2,33.4-27.1,45.6-44.6,7-.8,14-3.1,21.2-3.1,1.3.2,2.1-1.5,1.2-2.4-3.6-1.8-7.5-2.8-11.5-3.2-.3-2.8-.4-5.5-.7-8.3.8-2.4,2.2-4.5,3.3-6.8,6.4-12.3,10.9-25.6,13-39.3,2.2-14.9,1.6-30.2-1-45,12.9-7.3,26.4-13.5,40.1-19.1,10.3-4.1,21.2-6.3,32.2-7.4ZM309.3,107.8c-2.8.6-5.3,1.9-7.7,3.3-1.4,1.2.1,3.4,1.8,2.8,3.5-.9,7-2.2,10-4,1.1-2.7-2.5-2.6-4.1-2.1ZM292.2,113.9c-8.9,1.5-16.4,7.3-21.9,14.2-1.1,1.5,1.2,3.3,2.5,2,6.7-5.6,14.5-9.6,22.4-13.2,1.2-.4,2.2-1.6,1.5-2.9-1.3-1-3.1-.3-4.5-.1ZM429.7,157.5c-.1.1-.4.4-.5.5,0,4.4.5,9,2,13.3.4,1.5,2.7,1.5,3.1,0,1.4-4.5,0-9.6-2.8-13.3-.4-.7-1.2-.6-1.8-.4ZM431.1,183c-2.3,3-1.6,7.7-.2,11,.3,1.4,2.5,1.9,3.1.5,1.2-2.7.7-5.8,0-8.6-.4-1.3-1.1-3.4-2.9-2.9ZM290.2,247.3c-2.9,1.7-4.8,4.6-6.6,7.4-1.1,1.3,0,3.4,1.8,2.8,2.8-1.8,4.6-4.8,6.4-7.6.9-1.1,0-3.2-1.5-2.5ZM276.2,258.9c-8.7,2.7-17.4,5.3-26.2,7.9-1.4.5-1.2,3,.4,3,5.4.1,10.7-1.4,16-2.2,4.9-.6,9.6-3,12.9-6.6,1.1-2.2-1.6-3-3.2-2.1ZM442.7,136.6c7.6,12.2,11.2,26.5,11.9,40.7,6.5-2.4,12.8-6.6,16.4-12.7,6.2-11.2,1.3-26.4-9.4-32.9-7.5-3.9-16.2-5.1-24.5-3.8,1.7,3,3.9,5.7,5.6,8.7ZM33.8,136.5c1.8-.3,3.7-.6,5.6-.3-.3,1.9-.7,3.8-1.3,5.6-3.4-.5-7.1.4-9.5,3-.8.6-.7,1.8-.2,2.6,2.9.8,6,0,8.9,0-.7,4.5-.4,9.1-1,13.6-7.7,2.9-12.6,11.7-10.1,19.7,1.4,6.2,7.9,9.1,13.7,9.5,1,2.9,1.8,5.9,2.8,8.8.5.8-.7.6-1.1.6-9.2-1.3-18.3-4.8-25-11.3-5.8-5.3-9.1-13.2-9.2-21,.2-8.5,4.6-16.4,10.6-22.2,4.3-4.4,9.8-7.6,15.8-8.7ZM22.8,149.6c-2.7,1.8-5.6,4.8-4.9,8.3.1,1.5,2.4,1.4,3,.3,1.4-2.3,3.2-4.4,4.2-6.9.4-1.4-1.1-2.3-2.3-1.7ZM440.8,213.2c11.6,9.1,19.8,22.2,23.5,36.4,5.6-.5,10.8-3.8,14.5-7.9,4.1-5.4,1.4-12.7-1.9-17.8-4.8-6.9-12-11.4-18.2-16.9-2.5-1.8-5.4-4.7-8.4-4.9-2.3,4.4-5.6,8.1-9.5,11.1ZM57.6,253.8c5,7.3,13.2,11.9,21.5,14.7,10.3,3.5,21.4,3.1,31.8,6.2-7.4-6.2-15.9-12.8-17.9-22.8-10.5-2.1-18.5-9.9-26.7-15.9-7.4,1.6-13,11.1-8.8,17.9Z" style="fill: rgb(191, 156, 119);"/></g><g id="__id11_s9b4f5poj"><path d="M147.2,33.6c6.6-.8,9.8,7.2,10.3,12.6-6.7-1.2-13.4.1-19.9,1.5,1-5.7,4.1-11.8,9.6-14.1ZM38.6,184.5c-.9-6.4-1.9-12.8-2-19.3l-.3.3c-5.1,5.2-4.2,15.3,2.3,18.9ZM163.9,204.9c-4,3.1-8,6.3-10.9,10.5,4.4.9,8.6,3.3,11,7.2,3.8,6.2,3.2,14.3-.3,20.6,7,.2,15.2-.3,20.4-5.6,2.6-2.5,3.3-6.1,5-9.1.9-1.4,3-.4,3.1,1.1.5,4.8.6,10.4-2.8,14.3-3.5,4.1-8.9,5.8-14.1,6,1.2,7.4-4.2,14.5-11.2,16.3-1.5.3-4.3.8-4.2-1.5,4.3-4,8-9.2,9.7-14.9-2.9-.7-5.7-1.5-8-3.5-5.9,7-17.6,9.1-24.5,2.4-1.1,12.3,7.7,24.5,19.7,27.4,4.4,1.5,8.8-.4,13.1-1.6,21.1-7,38.8-21.7,52.6-38.7,1.4-2.6.9-5.9.8-8.7-1.7-12.6-10.4-23.9-21.7-29.4-5.3-2.4-11.4-3-17.2-2.4-7.6,1-14.4,5.1-20.4,9.6ZM305.9,204.5c4.6,14.8,7.2,30.6,4.3,46,3-.5,6-.7,9-.5-2.7-5.3-4.9-11-5.4-17-1.5-13,3.8-25.4,9.9-36.5h-.4c-5.9,2.4-12.4,3.9-17.4,7.9Z" style="fill: rgb(224, 200, 159);"/></g><g id="__id12_s9b4f5poj"><path d="M142.6,230.8c3.8,0,2.4,4.9,1.6,7.2-.3,2.4-3.6,3.5-5,1.3-1.4-3,0-7.5,3.3-8.5Z" style="fill: rgb(255, 255, 255);"/></g></svg>