<svg xmlns="http://www.w3.org/2000/svg" enable-background="new 0 0 500 500" version="1.1" viewBox="0 0 500 500" x="0px" xml:space="preserve" y="0px" style="fill: rgb(0, 0, 0);" original_string_length="32627" width="42.046426305521294px" height="42.046426305521294px">
<g id="__id28_s9b4f5poj"><path d="m213.8 94.8s23.3 34 98.5 61.3c82.8 30.1 125.7 23.6 125.7 23.6-6.5 29.2-89.7 100.3-156.7 66.3-90.6-45.8-70.2-143.8-67.5-151.2z" style="fill: rgb(143, 205, 231);"/></g>
<g id="__id29_s9b4f5poj"><path d="m271.9 244.7l15.5 9.2-108 208.6-15.8-8.5 108.3-209.3zl15.5 9.2-108 208.6-15.8-8.5 108.3-209.3zm-3.6 42.7c-8.1 15.4-10.6 19.3-18.7 35.4-4 7.6-8.1 15.8-12 23.3-1.6 3.7-5.1 9.8-7 14.1l-1 1.5c-0.7 1.6-1.5 3.1-2.3 4.6v-0.1c-1 2.2-2.3 4.6-2.8 5.7v-0.1l-1.3 2.6 0.2-0.5c-1.8 3.8-3.8 7.7-5.6 11.1l0.3-0.2c-4 7.2-5 10.1-8.7 16.6v-0.1c-3.8 8.6-7.2 13-11.2 21.9 0.5-1.1-0.3 0.4-0.3 0.3-2 4-4.2 8.2-3.8 8.5-1.5 2.9-1.3 2.3-1.7 2.6 0.2 0.1-1.1 2.6-2.2 4.9l0.5-1.1-3.3 6.5 1-1.1c-1.9 3.4-0.8 0.7-2.4 4l0.3 0.1c-2.5 4.7-4.3 7.3-6.9 11.8l-0.5 0.9-6.6-3.5-4-2.1-2-1-0.8-0.4 9.6-18.9c3.4-6.6 6.7-13 10-19l0.6-0.7c0.4-0.2 2.1-5.1 2.7-5.6l1-2.1c0.4-0.5 1-1.8 0.6-0.7 0.6-1.1 1.1-2.2 1.6-3.4l1.2-2c4-7.5 7-14 11.2-21.9 5.3-9.3 14.2-27.4 19.4-37.8 7.1-14.7 16.9-31 24.1-46.1 0.2-0.3 0.4-0.7 0.5-1.1 0.1-0.2 0.2-0.5 0.3-0.7l7.1-13.6s34.2-65.8 6-17l0.1-0.4c-4 7.4-6.4 12-8.8 17.3-0.8 0.6-3.2 6.1-4.2 7.8l0.1-0.2c-2.1 4.7-5.1 9.2-7.1 13.7 0.1-0.5 0.3-0.9 0.5-1.3-1.6 3.2-3.8 7.6-4.1 7.7-3.9 7.6-9.5 18.2-11.7 23.3l0.1-0.4c-1.2 2.9-1.8 3.6-3.3 6.8-0.1 0.1-0.2 0.4-0.2 0.3-1.3 3.1-4.5 8.9-5.7 11.4l-0.2 0.1-3.1 6 1.2-2.2c0 1-2.6 4.4-4.6 8.9-2.2 4.1-3.5 8.7-5.9 12.9-0.9 2.1 0.6-1.9-0.8 1.2-0.3 0 0.6-1.5 0-0.8-1.4 3-2.7 4.8-4.5 8.5l-0.2 0.1c-2.2 4.9-4.9 8.9-6.3 12.2-2.4 5-2.2 3.1-4.5 8.4l-1.2 1.9c-1.2 2.2-0.6 1.7-1.9 4.1-0.1-0.2-1.7 3-1.1 1.5-3.1 5.4-5.5 11.4-9.6 18.4-0.6 1.7-2.6 5.3-3 6.6-0.2 0.1-3.8 7.3-1.9 3.1 0.1-0.3 0.3-0.6 0.5-0.9l0.1-0.6c-2.4 4-3.7 7.6-5.9 11.7 0.7-1.2 1.5-2.8 1.1-1.7l-2.1 4.1 0.3-0.7 0.1-0.4-1.8 3.5 4.9 2.7-0.7-0.6c2.2 1.4 4.4 2.7 6.8 3.8 1.5 0.6-2.5-1.6 0.4-0.1l2.7 1.6 1.6 0.9 2.8 1.6c1.6-3 3.4-6.3 5-9.3-0.4 0.4 0.3-0.9 0.9-2.3l0.2-0.1c2.4-5.1 1.3-1.7 3.7-6.7l-0.1 0.5 0.4-1.5c2-4.7 1.6-2.2 3.8-7.5-1 2-0.8 0.8 0.5-1.6l-0.2 0.7c0.7-1.4 0.8-1.9 1.3-2.7-0.3 0.9 0 0.5 1-1.5l-0.5 1.4 1.7-3.9c1.7-2.8 3.8-7.5 4.7-8.6 0 0 3.3-6.2 3.8-7.7-0.5 1.3 1.3-2.1 1-1 1.2-2.9 2.6-5.7 4.2-8.3l-0.2 0.4c3.8-7 6-12.2 9.5-18.4-0.3 0.2 1.5-3.1 0.8-2.4 3.1-6.7 6.7-11.7 7.1-14.4 1.5-3 2-3.4 2.8-5l-0.3 0.7c2.8-5.6 3.7-7.2 5.8-11.4 0.8-2.1 1.8-4.2 2.8-6.3-0.5 1.3 0.3-0.3 1-1.6-0.4 0.9-0.5 1.2 0.5-0.6 0.1-0.3 0.3-0.7 0.4-1.1 0 0 0.1-0.1 0.1 0 1.1-2.3 0.9-2 0.3-0.9 0-0.1-0.1 0-0.3 0.3 1.4-2.3 3.5-6.7 3.8-6.9 3.6-7 5.9-12.1 8.8-17.9 0.4-0.6-0.1 0.8-1 2.5l2.1-4.1c0.1 0.1-1.1 2.4-1.8 3.7 2.8-4.8 5-10.2 8.2-15.8l0.5-1.3 0.2-0.3c0.2-0.8 0.5-1.5 0.9-2.2 0.6-0.7 0.3 0.2 1.8-2.6 1.3-2.2 3.2-6.4 4.7-9.4-0.9 1.6-0.7 1-0.4 0.3 0.7-1.4 1.3-2.2 1.8-3.3h0.3c-0.5 0.5 1.7-3.8 1.9-4.4 0.6-0.7-1 2.3-1.1 2.7l4.4-8.5c1.4-3.1-0.5 0.5 0.1-1.1 1.4-2.7 2.6-5.4 4.3-8.4l-0.7 0.9c2.5-5.1 4-8.1 6-11.4l1.1-2.3-3.2-1.8-2.7-1.4-4.4-2.3c-2.5-1.3-4.2-2.2-5.3-2.7-2.2-1-2-0.6-0.7 0.3 2.5 1.9 9.3 6.1 9.3 6.1l2.9 1.8 0.7 0.4 0.5 0.3-0.2 0.4c-0.4 0.7-0.7 1.3-1 2-0.7 1.3-1.3 2.6-2 3.9l-3.9 7.6c-2.9 5.2-5.8 11-9.6 18.6zm-48.2-200.6s6.4 26 93.3 62.2 132.9 25.2 132.9 25.2 27-127.5-70.5-162.6-155.7 75.2-155.7 75.2zm-68 371.8c-1.6 0.3-3.1 0.9-4.5 1.7s-2.6 1.9-3.6 3.2c-1.3 1.5-2.3 3.3-3.1 5.1-0.1 0.9-1 2.2-1.2 3.2l-0.3 0.3c0 0.2-0.1 0.4-0.1 0.5l-0.3 0.6c-0.1 0.6-0.3 1.2-0.3 1.5 0 0.2-0.1 0.5-0.1 0.7 0 0 0-0.1-0.1-0.1 0 0.5 0 1-0.1 1.5s0 1-0.1 1.4l0.2-0.1c-0.1 0.7-0.1 1.5 0.1 2.2 0.1 0.7 0.2 1.4 0.2 2.1h-0.1c0.2 0.5 0.4 0.9 0.5 1.4 0.1 0.4 0.2 0.9 0.3 1.3s0.2 0.9 0.4 1.3c0.2 0.5 0.5 0.9 0.8 1.3-0.2-0.2-0.1 0.2-0.1 0.2 0.3 0.4 0.6 0.9 0.9 1.2s0.6 0.4 0.7 0.3c0.5 0.6 0.3 0.5 0.2 0.7 0.1-0.1 0.2 0 0.4 0.2s0.4 0.3 0.6 0.5l-0.2-0.1c0.4 0.4 0.8 0.7 1.3 1l-0.1-0.5c0.6 0.6-0.1 0.5 0.7 0.9l0.1-0.2c0.5 0.4 0.9 0.6 1.2 1 0.4 0.4 0.8 0.7 1.3 1l0.9 0.3 0.9 0.2 1.8 0.3c1.2 0.2 2.4 0.3 3.6 0.3 2.4 0.1 4.8 0 7 0l0.2 0.2c0.1 0.1 0.4 0 0.7-0.2s0.6-0.4 0.7-0.2l0.5-0.2c0.2 0 0.5 0 0.2 0.1 0.3-0.1 0.6-0.2 0.8-0.4h0.6c1.9-0.6 3.6-1.7 4.9-3.1 0.1-0.1 0.3-0.2 0.4-0.3l0.4-0.4c0.3-0.3 0.5-0.6 0.8-1l0.6-1.2s0.3-0.8 0.5-1.3c0.5-1.6 0.8-3.2 0.9-4.8 0-1.8 0.3-3.8 0.2-5.8 0-1-0.1-2-0.3-3s-0.6-1.9-1.1-2.7c0-0.1-0.1-0.3-0.3-0.4-0.1-0.3-0.2-0.5-0.3-0.8l-0.4-0.8c-0.3-0.5-0.6-1-0.9-1.5 0 0-0.1-0.2-0.4-0.6-0.3-0.5-0.7-0.9-1.1-1.3-1-1.1-2.2-2-3.5-2.7-1.2-0.6-2-0.8-2-0.4 0.1 0.4 0.4 0.8 0.7 1.2 0.2 0.3 0.5 0.6 0.9 1s0.7 1 1.1 1.5h-0.1c0.6 0.6 1 1.2 1.4 1.6 0.4 0.5 0.8 0.9 1.2 1.2-0.2 0.4 0.6 1.2 0.7 1.6 0.4 0.4 0.6 0.9 0.7 1.4s0.3 1 0.5 1.4c0 0-0.1 0-0.2-0.2 0.1 0.3 0.3 0.7 0.4 1s0.1 0.6 0 0.6c0.5 1.6 0.5 4 0.8 5.1l-0.1-0.1c0.2 0.6 0 0.8 0.1 1.5l-0.1 0.1c0.1 0.4 0 0.9-0.1 1.3s-0.2 0.8-0.2 1.2h-0.2c-0.1 0.4-0.2 0.9-0.3 1.3l0.2-0.5c0.4 0.3-0.5 0.9-0.7 1.9-0.2 0.5-0.2 1-0.2 1.4 0 0.5-0.2 1-0.6 1.4-0.1 0.5 0-0.5-0.3 0.1-0.2-0.1 0.1-0.4-0.2-0.3-0.1 0.3-0.4 0.4-0.6 0.6-0.3 0.2-0.5 0.4-0.8 0.6l-0.1-0.1c-0.1 0.2-0.3 0.4-0.5 0.5l-0.6 0.3c-0.2 0.1-0.4 0.2-0.6 0.2-0.2 0.1-0.4 0.2-0.5 0.3-1 0.6-0.9-0.2-1.8 0.4-0.2 0-0.3-0.1-0.5-0.1-0.5 0.1-0.3 0.4-0.8 0.4 0-0.1-0.7 0-0.4-0.2-1.2 0-2.5 0.6-4.1 0.2-0.4 0.3-1.2 0.1-1.5 0.3 0-0.1-1.7-0.1-0.7-0.4h0.2l0.1-0.2c-0.9-0.4-1.7 0-2.7-0.1 0.3 0.1 0.6 0.1 0.4 0.2s-0.6-0.1-0.9-0.1l0.2-0.1c-0.4-0.1-0.9-0.2-1.3-0.3l0.1 0.2c-0.6-0.2-0.8-0.6-1.5-0.5-0.4 0.1 0.5 0.4-0.1 0.3-0.9-0.4-1.9-0.8-2.8-1.3 0 0.2-0.2 0.1-0.5 0l0.1-0.2c-0.5-0.1-0.6-0.3-0.6-0.4s0-0.3-0.5-0.5h0.1l-0.4 0.1c-1-0.3-0.1-0.6-1.2-1 0.3 0.2-0.2 0.5-0.4 0h0.2c-0.2-0.2-0.3-0.2-0.4-0.4 0.2 0.1 0.2-0.1 0-0.4l0.4 0.1c-0.3-0.1-0.5-0.3-0.7-0.4-0.1-0.3-0.3-0.7-0.5-0.9s-0.3-0.5-0.3-0.8c0 0-0.1-0.3-0.3-0.6-0.1-0.3-0.3-0.6-0.5-0.8 0.2 0.2 0-0.5 0.3-0.4-0.4-0.5-0.6-1.1-0.6-1.7v0.1c-0.1-1.5-0.7-2.6-0.4-4-0.2 0.1-0.1-0.7-0.3-0.5 0-0.6 0-1.3 0.3-1.9 0.3-0.4 0.3-0.9 0-1.2 0.2-0.6 0.4-0.6 0.6-0.9v0.2c0.3-0.8 0.6-1.7 1-2.5 0.1-0.5-0.2-0.7 0.3-1.4 0 0.3 0.1 0 0.3-0.3-0.1 0.2-0.1 0.3 0.2 0v-0.2c0.2-0.5 0.1-0.4 0-0.2-0.1 0.1-0.1 0.1-0.1 0 0.4-0.4 0.8-1.4 1-1.3 0.6-1.2 1.3-2.4 2.1-3.5 0.2 0 0.1 0.3-0.1 0.6 0.2-0.2 0.4-0.5 0.6-0.7 0.1 0.1-0.3 0.5-0.4 0.7 0.9-0.6 1.4-1.8 2.6-2.3l0.1-0.3h0.1c-0.1-0.1 0.1-0.3 0.3-0.4 0.2 0.1 0.2 0.4 0.7 0.1 0.6-0.2 1.2-0.5 1.8-0.8-0.3 0.1-0.3 0-0.1-0.2 0.3-0.1 0.5 0.1 0.7-0.1l0.1 0.2c-0.2-0.2 0.8-0.3 0.9-0.4 0.2 0.1-0.5 0.2-0.5 0.3 0.3-0.1 0.6-0.1 0.9-0.1h0.9c0.7-0.1-0.1-0.2 0.2-0.4 0.6-0.1 1.3 0 1.9 0.2l-0.2-0.2c0.9 0 1.8 0.3 2.6 0.8 2.2 0.3 3.5 0.7 4.2 0.7s0.7-0.2 0.5-0.5c-0.3-0.4-0.7-0.7-1.2-1-0.3-0.2-0.6-0.4-0.9-0.5-1.4-0.9-3-1.4-4.7-1.6-1.8-0.2-3.8-0.1-5.7 0.4zm11.8 3.9c-15.5-8.5-20.9 5.4-23.2 10.8s-0.6 17 8.5 19.4c6.9 1.8 17.8 2.3 21.7-3.9s4.3-20.1-7-26.3zm1.9 22c-2.5 4-9.5 3.6-14 2.5-5.9-1.5-7-9-5.5-12.5s5-12.4 15-7c7.3 4.1 7 13.1 4.5 17zm-1.9-22c-15.5-8.5-20.9 5.4-23.2 10.8s-0.6 17 8.5 19.4c6.9 1.8 17.8 2.3 21.7-3.9s4.3-20.1-7-26.3zm1.9 22c-2.5 4-9.5 3.6-14 2.5-5.9-1.5-7-9-5.5-12.5s5-12.4 15-7c7.3 4.1 7 13.1 4.5 17zm-8.9 4.3l-0.2-0.1s0 0.1 0.2 0.1zm9-18.5zm-14.9 14.5m7.9 1.4c-0.8 0-1.7-0.1-2.5-0.3s-1.7-0.3-2.5-0.4l-1.6-0.3c-0.4-0.1-0.9-0.2-1.3-0.4-0.3 0-0.6-0.1-0.8-0.3-0.3-0.1-0.5-0.4-0.7-0.5v-0.2c-0.2-0.1-0.3-0.2-0.4-0.4-0.3-0.1-0.4-0.4-0.5-0.5h0.1l-0.2-0.3h0.1c-0.3-0.3-0.6-0.8-0.7-1.2l-0.2 0.1c-0.1-1-0.6-1.2-0.5-2.2-0.3-0.4-0.3-1-0.2-1.5 0.2-0.5 0.2-1 0.1-1.5 0 0.1 0.1 0 0.2 0v-0.7c0-0.2-0.1-0.4-0.2-0.4 0.1-0.4 0.2-0.3 0.4-0.2-0.2-0.1-0.1-0.5 0-0.8v0.2l0.3-0.9h-0.4c0.3-0.4 0.4 0 0.6-0.4l-0.2-0.1c0.4-0.6 0.9-0.8 1.4-1.2 0.7-1.2 1.5-2.2 2.4-3.2 0.9-0.9 2.1-1.4 3.3-1.3l0.1 0.2c0 0.3 0.6-0.4 0.7-0.1l0.3-0.1c0.1 0.1 0.2 0.1 0.1 0.2 0.2 0 0.3 0 0.4-0.1l0.2 0.2c0.2 0.1 0.5 0.1 0.7 0.2s0.5 0.1 0.7 0.2l0.7 0.1c0.3 0.1 0.5 0.2 0.7 0.3 0.3 0.3 0.6 0.5 1 0.7 0.3 0.3 0.8 0.5 1.2 0.7 0.8 0.5 1.5 1 2.2 1.6 0.8 0.7 1.3 1.7 1.4 2.8s0.3 2.1 0.6 3.1c0 0.1 0.1 0.2 0.1 0.2v1l-0.1 1v0.4s-0.1 0.6-0.1 0.9c-0.1 0.7-0.3 1.6-0.5 2.3s-0.2 1.2 0.1 1.3 1.3-0.3 2.5-2.2v0.1c0.5-0.9 0.6-1.9 0.4-2.9 0.4-0.1 0.1-1 0.2-1.3-0.3-0.7 0.2-1.6-0.2-2.3 0 0 0.1 0 0.2 0.2-0.1-0.5-0.4-1.2-0.2-1.3-0.4-1.2-1-3-1.8-3.5h0.1c-0.4-0.3-0.3-0.5-0.8-0.9v-0.1c-0.3-0.2-0.5-0.4-0.7-0.7-0.2-0.2-0.4-0.5-0.6-0.6l0.1-0.1c-0.2-0.2-0.5-0.5-0.8-0.6l0.3 0.3c-0.4 0.3-0.4-0.7-1.2-0.9-0.6-0.4-1.6 0-2.1-0.4-0.4 0 0.4-0.2-0.1-0.2 0.1-0.2 0.3 0 0.2-0.2-0.5-0.1-0.6-0.5-1.2-0.7v-0.2c-0.9 0.1-1.4-0.7-2-0.5-0.8 0-0.5-0.6-1.4-0.4l-0.3-0.3c-0.4 0-0.3 0.3-0.7 0.2 0-0.1-0.6-0.1-0.3-0.3-0.5-0.1-1.1 0-1.6 0.2-0.6 0.2-1.2 0.4-1.8 0.5-0.1 0.4-0.8 0.6-0.9 0.9-0.1-0.1-1.1 0.8-0.6 0.1l0.1-0.1v-0.2c-0.4 0.1-0.7 0.3-0.9 0.6s-0.4 0.6-0.6 0.8c0.2-0.1 0.4-0.3 0.3-0.1l-0.5 0.5v-0.2l-0.7 0.7h0.2c-0.4 0.3-0.7 0.3-0.8 0.9 0 0.3 0.5-0.2 0.2 0.2-0.6 0.5-1.1 1.1-1.5 1.8 0.2 0 0.1 0.2 0.1 0.4l-0.2-0.1c-0.1 0.9-0.5 0.1-0.7 0.9l-0.1-0.1 0.2 0.4c0 0.8-0.5 0.2-0.4 1.1 0.1-0.3 0.4 0 0.2 0.3l-0.1-0.1c0 0.2 0 0.3-0.1 0.4 0-0.2-0.2-0.2-0.3 0.2l-0.1-0.3c0 0.3 0 0.5 0.1 0.8l-0.3 0.9c0 0.3-0.1 0.5-0.2 0.6-0.1 0.2-0.1 0.4-0.1 0.6 0 0.3 0 0.5 0.1 0.8-0.2-0.2-0.2 0.4-0.4 0.2 0.2 0.4 0.3 1 0.2 1.5v-0.1c-0.1 1.3 0.6 2 0.8 3.1 0.2-0.1 0.3 0.5 0.5 0.2 0.3 0.4 0.5 0.9 0.6 1.4 0.2 0.4 0.4 0.7 0.8 0.6 0.4 0.4 0.2 0.6 0.4 0.8l-0.1-0.1 0.8 0.8c0.2 0.2 0.5 0.4 0.7 0.6 0.4 0.1 0.6-0.1 1.1 0.3-0.3 0 0 0.1 0.2 0.2-0.1 0-0.2 0 0 0.2h0.2c0.4 0.1 0.3 0 0.2 0v-0.1c0.3 0.4 1.1 0.4 1.1 0.6 0.9 0.1 1.9 0.2 2.9 0.1 0.1 0.1-0.1 0.2-0.4 0.2h0.7c0 0.2-0.4 0.1-0.6 0.1 0.7 0.4 1.6-0.1 2.5 0.3l0.2-0.1h0.1c0-0.1 0.2-0.2 0.4-0.2 0.1 0.2 0 0.4 0.4 0.4 0.5 0.1 1 0 1.5-0.2-0.3 0-0.2-0.1-0.1-0.2s0.4 0.1 0.6 0.1v0.2c-0.1-0.2 0.6-0.3 0.6-0.4 0.1 0.1-0.3 0.2-0.4 0.3 0.5-0.1 0.9-0.1 1.4-0.3 0.4-0.3-0.1-0.2 0.1-0.4 0.4-0.2 0.8-0.3 1.3-0.4l-0.2-0.1c0.5-0.3 1.1-0.6 1.7-0.7 0.7-0.6 1.1-1.5 1.2-2.5 0-0.4-0.2-0.6-0.5-0.5s-0.5 0.2-0.7 0.3c-0.1 0.1-0.3 0.1-0.4 0.2-0.7 0.3-1.3 0.6-1.9 1-0.8 0.3-1.7 0.6-2.6 0.8zm-9.1-24l-0.3 0.1c0.1 0 0.2 0 0.3-0.1zm22.3 19zm-31.2-12.6z" style="fill: rgb(194, 152, 115);"/></g>
<g id="__id30_s9b4f5poj"><path d="m241.3 102.8c1.7 1.4 3.1 2.4 4.4 3.4s2.4 1.8 3.6 2.6c2.8 1.9 5.8 3.5 9 4.7 4 1.7 8.1 3.2 12.3 4.3 1.3 0.1 2.5 0.3 3.7 0.7 1.3 0.4 2.6 0.7 3.9 0.8l0.8 0.6c0.8 0 1.7 0.1 2.5 0.5l-0.1 0.1c1.2 0 2.5 0.4 3.1 0.4l-0.1 0.1 1.4 0.2-0.3 0.1c2 0.2 4 0.5 5.9 1.1l-0.1-0.4c3.8 1.2 5.4 0.7 8.8 1.9l-0.1 0.1c4.6-0.2 6.8 2.2 11.5 2.2-0.6 0 0.2 0.3 0.1 0.3 2.1 0.4 4.3 0.9 4.5 0.1 1.5 0.4 1.1 0.6 1.2 0.9 0.1-0.3 1.4-0.1 2.6 0.2h-0.6c1.1 0.3 2.2 0.6 3.3 0.9l-0.4-0.8c1.7 0.7 0.2 0.9 1.9 1.3l0.2-0.5c1 0.4 2 1 2.9 1.6 0.8 0.6 1.6 1.3 2.7 1.9 9.2 3.9 19.5 8 27.2 13.6l0.1 0.6c-0.1 0.6 2.7 0.5 2.8 1.2l1.1 0.3c0.2 0.3 0.7 0.7 0.2 0.5 0.5 0.3 1.1 0.6 1.7 0.7l0.8 0.9c3.4 2.3 6.8 3.4 10.5 5.6 2.8 2 5.8 3.6 8.9 4.9 3.2 1.4 6.6 2.6 9.9 3.6 3.9 1 7.8 2.7 12 4.1 4.1 1.5 8.4 2.3 12.7 2.4 0.3 0.1 0.7 0 1-0.1 2.5 0.2 5.1 0.3 7.6 0.2l1.5-0.1 1.7-0.1 2.1-0.3c3.2-0.5 6.4-1.3 9.4-2.6 2.6-1.2 4.3-2.4 3.5-2.9-1-0.3-2-0.4-3-0.2l-1.4 0.1-1.7 0.1-2 0.1h-2.3l0.1-0.2c-1.9 0.3-3.5 0.3-4.9 0.5-1.4 0.1-2.7 0.4-4 0.8-0.4-0.8-3.2-0.1-4.1-0.4l0.1-0.1c-1.2 0.2-2.4 0.1-3.6-0.2-1.1-0.4-2.3-0.5-3.5-0.4 0.2-0.2 0.4-0.3 0.7-0.2-1.7-0.1-3.9-0.4-4-0.8-2-0.3-4.3-0.8-6.4-1.4-1.8-0.5-3.6-0.8-5.5-1l0.2-0.1c-1.6 0-1.8-0.6-3.5-0.9-0.1-0.1-0.2-0.2-0.1-0.2-1.7-0.1-4.4-1.6-5.7-2v-0.1l-3-1.2c0.4 0.2 0.7 0.4 1.1 0.6-0.8 0.6-2-1.5-4.3-2-1.1-0.5-2.2-0.7-3.3-0.8-1.2 0-2.3-0.4-3.3-1.1-1.2-0.1 1.2-0.1-0.4-0.6 0.2-0.4 0.8 0.1 0.6-0.4-1.5-0.6-2.1-1.7-3.9-2.4l0.1-0.4c-2.6-0.7-4-2.8-5.8-3.1-2.5-1.1-1-1.8-3.8-2.6l-0.7-1c-1-0.7-1 0.1-2-0.8 0.2-0.2-1.3-1.1-0.5-0.9-2.4-1.9-5.6-2.5-8.6-5.1-1 0.1-2.6-1.2-3.4-1.1 0-0.3-3.5-1.9-1.3-1.4 0.2 0.1 0.5 0.2 0.4 0.3l0.4-0.2c-1.7-1.7-3.8-1.6-5.8-2.7 0.5 0.4 1.4 0.8 0.7 0.7l-1.9-1 0.5-0.1c-0.9-0.5-1.8-1-2.8-1.5l0.2 0.5c-1.3-0.8-1.5-1.6-3.3-1.8-0.8 0 1.1 1-0.4 0.5-0.9-0.5-2-1.2-3.2-1.8s-2.5-1.2-3.7-1.8c0.1 0.5-0.6 0.2-1.3 0.1v-0.4c-2.8-0.4-0.7-1.1-3.5-1.6l0.3-0.2-0.9 0.5c-2.6-0.1-1.1-1.1-4-1 1.1 0.2 0.3 0.9-1 0.4l0.4-0.2c-0.5 0-1-0.1-1.5-0.2 0.5-0.1 0.4-0.4-0.7-0.7l0.8-0.2-2.1 0.1c-1.4-0.8-4-0.9-4.5-1.5 0 0-3.3-1-4.1-0.6 0.7-0.2-1.1-0.7-0.5-1-1.5 0.2-3.1 0-4.5-0.6h0.2c-3.7-1.2-6.5-0.7-9.7-1.9 0.1 0.4-1.6-0.1-1.3 0.5-3.6-0.2-6-2.4-7.6-1.1-1.6-0.3-1.8-0.8-2.5-1.1h0.4c-2-0.3-3.9-0.8-5.9-1.4-1.1-0.1-1.5 0.5-3.3-0.2 0.7-0.1-0.1-0.3-0.8-0.5 0.5 0.1 0.6 0-0.2-0.4h-0.6v-0.1c-1.2-0.3-1-0.1-0.5 0.1 0 0 0 0.1 0.1 0.2-0.7-0.4-1.4-0.7-2.1-0.9-0.7-0.3-1.3-0.5-1.2-0.8-3.5-1.1-6.1-1.7-9-2.8-0.2-0.4 0.5-0.3 1.4 0-0.7-0.3-1.4-0.5-2-0.8 0.2-0.3 1.2 0.4 1.9 0.6-1.1-0.8-2.3-1.4-3.6-1.8-1.4-0.4-2.7-1.1-3.8-2l-0.7-0.1-0.1-0.1c-0.1 0.1-0.8 0-1.2-0.2-0.2-0.5 0.4-0.6-0.8-1.4-0.5-0.5-1.2-1-1.9-1.3l-1.2-0.6-1.1-0.6c0.6 0.6 0.3 0.5-0.1 0.4-0.6-0.5-0.7-1-1.3-1.2l0.2-0.4c0 0.2-0.5 0.1-1-0.2-0.4-0.3-0.7-0.5-1.1-0.7-0.1-0.5 1 0.5 1.4 0.5l-1.5-1.4c-0.6-0.5-1.1-1-1.6-1.5-1.4-0.9-0.1 0.5-0.9 0.2-0.5-0.5-1.1-0.9-1.6-1.4-0.6-0.5-1-1.1-1.4-1.8v0.7c-0.9-0.7-1.6-1.6-2.3-2.5-0.6-0.7-1-1.6-1.3-2.4-1.7-1.8-2.9-3.4-3.9-4.6-0.6-0.9-1.2-1.7-1.9-2.6-1.1-1.1-1.4-0.8-1.5 0 0.1 1.2 0.3 2.4 0.6 3.5 0.2 0.5 0.4 1.1 0.6 1.6 0.2 0.4 0.3 0.7 0.3 0.7 0.7 1.8 1.6 3.5 2.7 5.2 0.5 0.7 1.1 1.4 1.6 2.1 0.3 0.3 0.5 0.7 0.8 1s0.6 0.6 0.9 0.9l1.9 1.9 2.1 1.8c0.7 0.7 1.6 1.3 2.4 1.9l1.3 1.1 1.5 1zm179.6 34c-2.7-1-5.4-2.3-7.8-3.9l-7.6-4.8c-3.1-2.2-6.4-4.7-9.3-7.2-1.8-0.8-3.7-3.4-5.6-4.6l-0.4-0.8c-0.7-0.4-1.3-0.9-1.8-1.6h0.1c-1-0.6-1.8-1.6-2.3-1.9h0.1l-1-0.9 0.3 0.1c-1.6-1.2-3-2.5-4.3-3.9l-0.2 0.4c-2.5-3-4.1-3.3-6.5-6.1h0.1c-1.7-1-3.3-2.2-4.7-3.7s-3.1-2.6-5-3.4c0.6 0.2-0.1-0.3 0-0.4-1.9-1.1-3.9-2.2-4.4-1.5-1.4-0.8-1-0.8-1-1.2-0.2 0.3-1.4-0.2-2.5-0.7 0.2 0 0.4 0.1 0.6 0.1-1.1-0.5-2.2-0.9-3.3-1.3l0.4 0.9c-1.6-0.9-0.1-1-1.9-1.4l-0.2 0.5c-2.4-1-3.6-2.2-5.9-3.3-5.2-1.2-10.5-1.7-15.8-1.5-5.2 0.1-10.3 0.4-14.9 0l-0.4-0.4c-0.2-0.6-2.5 1-2.9 0.4l-1.1 0.3c-0.3-0.1-0.9-0.2-0.4-0.4-0.6 0-1.2 0.1-1.7 0.3l-1.1-0.4c-3.9-0.3-7.2 0.3-11.2-0.3-0.6-0.2-1.2-0.3-2-0.5s-1.4-0.3-2.2-0.5c-1.6-0.2-3.2-0.7-5-1-0.9-0.2-1.7-0.4-2.5-0.6s-1.7-0.4-2.5-0.6c-1.6-0.5-3.1-0.9-4.3-1.4-3.6-1.1-6.9-3.4-10-5.9s-5.9-5.3-9-7.6c-0.2-0.2-0.5-0.4-0.8-0.5l-2.3-2.5c-0.8-0.9-1.5-1.8-2.2-2.7l-0.2-0.3c-0.1-0.2-0.4-0.4-0.6-0.8l-2.1-2.7-2.5-3.6c-0.8-1.3-1.6-2.5-2.3-3.6-1.4-2.2-2.5-3.7-3-3-0.2 0.3-0.3 1.2 0 2.9 0.1 1 0.3 2 0.6 3l0.6 2c0.1 0.3 0.2 0.7 0.4 1.1l0.5 1.2-0.2-0.1c0.8 1.6 1.7 3 2.7 4.4 0.8 1.2 1.8 2.2 3 3-0.4 0.9 2 2.6 2.5 3.4h-0.1c1 0.8 1.9 1.7 2.7 2.7s1.7 1.8 2.7 2.5c-0.3 0.1-0.5 0-0.7-0.2 1.4 1.1 3.4 2.4 3.1 2.9 3.3 2.5 8.1 5.8 10.9 6.3h-0.2c0.6 0.1 1.2 0.3 1.7 0.6 0.6 0.3 1.1 0.5 1.7 0.7 0 0.1 0.1 0.2 0.1 0.2 1 0.2 2 0.6 3 1.1 0.9 0.4 1.8 0.7 2.8 1v0.3c1 0.4 2.1 0.6 3.1 1l-1.1-0.4c0.3-0.4 0.9 0 1.6 0.4 0.9 0.6 1.9 0.9 3 0.9 2.1 0.7 4.7-0.9 6.9 0 1.1-0.3-1 0.6 0.6 0.4 0 0.5-0.8 0.2-0.4 0.6 1.6-0.1 2.5 0.8 4.5 0.6v0.4c1.2-0.2 2.4-0.1 3.6 0.1 1 0.2 2 0.2 3 0 2.6-0.3 1.8 1.1 4.5 0.4l1.1 0.5c1.2 0.1 0.8-0.6 2.1-0.4-0.1 0.3 1.6 0.2 0.9 0.5 2.9 0.4 5.9-0.9 9.7-0.1 0.8-0.6 2.7-0.3 3.3-0.7 0.1 0.2 3.8 0.1 1.7 0.6-0.2 0-0.5 0-0.5-0.1l-0.2 0.4c1 0.3 2 0.3 3 0.1s2-0.3 3-0.2c-0.6-0.2-1.4-0.2-0.9-0.4l1.9 0.2-0.4 0.3c1 0.1 1.9 0.3 2.8 0.4l-0.4-0.4c1.4 0.3 1.8 1 3.4 0.7 0.8-0.2-1.2-0.7 0.2-0.6l1.5 0.4 1.7 0.6c1.2 0.4 2.3 0.9 3.5 1.2-0.1-0.4 0.5-0.3 1.2-0.2v0.4c2.5 0.4 0.6 1 3 1.5l-0.3 0.2 0.9-0.4c1.2 0.1 1.4 0.4 1.6 0.7s0.5 0.5 1.8 0.7c-0.9-0.4-0.1-0.9 1-0.2l-0.4 0.2c0.4 0.1 0.9 0.3 1.3 0.5-0.5 0-0.4 0.3 0.5 0.8h-0.8c0.6 0.1 1.3 0.3 1.9 0.4 1.1 1 3.2 2 3.5 2.7l1.3 1c0.6 0.5 1.3 0.8 2 1-0.7-0.1 0.6 1 0 1 1.4 0.5 2.6 1.3 3.4 2.4l-0.2-0.1c2.5 2.6 5 3.7 7.1 6.3 0.2-0.4 1.3 1 1.3 0.3 2.8 2 3.7 5.1 5.8 4.8 1.2 1 1 1.6 1.6 2.2l-0.3-0.2c2.2 2 2.8 2.5 4.4 4.1 0.9 0.6 1.6 0.2 2.9 1.7-0.7-0.2 0 0.3 0.5 0.8-0.4-0.3-0.6-0.3 0 0.5 0.2 0 0.4 0.1 0.5 0.2v0.1c1 0.7 0.9 0.5 0.5 0.1v-0.3c0.7 1.2 2.7 2.3 2.5 2.8 0.8 0.6 1.5 1.1 2.2 1.5s1.4 0.8 2.1 1.2c1.3 0.8 2.6 1.4 4 2.2 0.1 0.4-0.6 0.2-1.4-0.2 0.6 0.4 1.3 0.8 1.9 1.1-0.2 0.3-1.2-0.5-1.8-0.8 1 1 2.2 1.7 3.5 2.2 1.4 0.5 2.7 1.3 3.9 2.1h0.7l0.1 0.1c0.1-0.1 0.8-0.1 1.2 0.1 0.3 0.5-0.4 0.7 1.1 1.3 0.7 0.5 1.4 0.8 2.2 0.9 0.9 0.2 1.8 0.5 2.6 0.6-0.8-0.3-0.5-0.4-0.1-0.4 0.7 0.2 1.1 0.7 1.7 0.7l-0.1 0.4c-0.2-0.5 2.1 0.2 2.4 0 0.4 0.4-1.2 0-1.5 0.2 1.5 0.4 1.9 0.4 2.3 0.5s0.8 0.2 2.3 0.4c1.7-0.1-0.2-0.5 0.6-0.7 0.7 0.1 1.5 0.1 2.2 0.1 0.8 0 1.6 0.1 2.3 0.2l-0.5-0.4c0.7 0 1.3-0.1 1.8-0.1s1.1-0.1 1.5-0.1c1 0 1.8 0.1 2.8 0.1l1.7-0.6 0.8-0.3 0.7-0.3c0.9-0.4 1.7-0.8 2.3-1.2 0.9-0.6 1.7-1.2 2.5-2 0.9-1 0.7-1.4-0.1-1.4-1 0-2 0.1-3 0.4l-1.9 0.3c-0.4 0-0.8 0.1-1.2 0.2s-0.8 0.1-1.2 0.1c-0.8 0-1.5 0.2-2.2 0.2-1.4 0-2.7 0.2-4.1 0.2-3.3 0.5-6.8 0.1-10.2-0.8zm-117.5-106.1c0.9 1.2 1.8 2.1 2.5 2.9s1.4 1.5 2 2.2c0.7 0.7 1.4 1.4 2.2 2.1 1 0.8 2.1 1.6 3.3 2.2 2.5 1.7 5.2 3 8.1 4 0.9 0.1 1.8 0.3 2.6 0.7 0.9 0.4 1.8 0.6 2.7 0.6l0.5 0.5c0.6 0 1.2 0.1 1.8 0.3l-0.1 0.1c0.7 0 1.5 0.1 2.2 0.2v0.1c0.3 0.1 0.7 0.1 1 0.1l-0.2 0.1c1.4 0 2.9 0.1 4.3 0.4l-0.1-0.4c2.8 0.7 3.8-0.2 6.2 0.3v0.1c3.1-1.1 4.9 0.6 8-0.5-0.4 0.1 0.2 0.2 0.1 0.3 1.4-0.2 2.9-0.3 2.9-1.1 1 0 0.8 0.2 1 0.6 0-0.4 0.9-0.5 1.7-0.5l-0.4 0.1c0.8 0 1.5-0.1 2.3-0.1l-0.4-0.7c1.2 0.2 0.3 0.8 1.4 0.7v-0.6c1.7 0.2 2.6 1.1 4 1.8 3.2 0.5 6.4 1.3 9.5 2.3 3.1 1.1 5.9 2.8 8.4 5v0.5c-0.2 0.6 1.9 0.2 1.8 0.8l0.8 0.2c0.1 0.2 0.4 0.6 0 0.5 0.3 0.3 0.7 0.4 1.1 0.5l0.4 0.8c2 1.8 4.2 2.7 6.4 4.6 1.5 1.7 3.3 3.2 5.2 4.4 2 1.3 4.1 2.5 6.2 3.6 2.6 1.2 5.1 2.7 7.5 4.3 2.5 1.7 5.4 2.7 8.4 3 0.2 0.1 0.5 0.1 0.7 0 1.7 0.4 3.5 0.6 5.3 0.7h0.3 0.8c0.9 0 1.8-0.1 2.7-0.2 2.3-0.3 4.5-1 6.5-2.1 1.8-1.1 2.7-2.1 2.1-2.6-0.7-0.3-1.4-0.4-2.2-0.3h-2.1c-0.9 0-1.9-0.1-2.8-0.2l0.1-0.2c-1.9-0.1-3.8 0.2-5.6 0.7-0.1-0.4-0.6-0.5-1.2-0.5-0.5 0.1-1 0-1.4-0.2l0.1-0.1c-0.4 0.1-0.8 0.1-1.2 0s-0.8-0.2-1.1-0.4c-0.7-0.4-1.5-0.5-2.2-0.6 0.1 0 0.2-0.3 0.5-0.2-0.6-0.1-1.1-0.2-1.6-0.3-0.5-0.2-0.8-0.4-0.8-0.6-2.5-0.7-5.7-2.5-7.5-2.6h0.2c-1.1 0-1.1-0.6-2.2-0.9 0-0.1-0.1-0.2 0-0.2-1.2-0.1-2.7-1.6-3.5-1.9l0.1-0.3-1.8-1.2c0.2 0.2 0.4 0.4 0.6 0.5-0.7 0.6-1-1.4-2.6-1.9-1.1-1-3.5-0.4-4.4-1.7-0.8-0.1 0.9-0.1-0.1-0.5 0.3-0.4 0.6 0.1 0.6-0.4-1-0.5-1.1-1.5-2.3-2l0.2-0.3c-1.8-0.6-2.3-2.4-3.6-2.6-1.6-0.8-0.3-1.6-2.3-2.2l-0.3-0.8c-0.6-0.5-0.8 0.1-1.4-0.6 0.2-0.2-0.8-0.8-0.2-0.8-1.4-1.6-3.9-1.8-5.8-3.8-0.8 0.2-1.9-0.8-2.5-0.5 0-0.3-2.5-1.2-0.9-1.1 0.1 0 0.4 0.1 0.3 0.2l0.3-0.2c-1.2-1.3-2.8-0.9-4.3-1.5 0.4 0.2 1 0.5 0.5 0.5-0.4-0.2-0.9-0.4-1.4-0.5l0.4-0.2c-0.7-0.3-1.4-0.6-2.1-0.8l0.2 0.4c-1-0.5-1.2-1.2-2.5-1-0.6 0.2 0.9 0.7-0.2 0.6-1.7-0.7-3.5-1.2-5.3-1.5 0.1 0.4-0.4 0.3-0.9 0.4v-0.4c-1.9 0.4-0.7-0.9-2.6-0.5l0.2-0.2-0.5 0.7c-1.7 0.7-0.9-0.8-2.8 0.2 0.7-0.1 0.4 0.8-0.5 0.6l0.2-0.3c-0.5 0.1-0.7 0.2-1 0.2 0.3-0.2 0.1-0.5-0.6-0.4l0.5-0.4-1.4 0.7c-1.1-0.3-2.7 0.2-3.2-0.3 0 0-2.2-0.1-2.7 0.4 0.4-0.3-0.8-0.4-0.5-0.8-0.9 0.5-1.9 0.6-2.9 0.3h0.1c-2.5-0.4-4.2 0.5-6.3-0.1 0.1 0.4-1 0.1-0.8 0.7-1 0-2-0.2-2.9-0.5-0.8-0.2-1.4-0.4-2 0.3-1-0.1-1.1-0.6-1.6-0.8h0.2c-1.3-0.2-2.5-0.5-3.7-1-0.7-0.1-1.1 0.6-2.2 0 0.5-0.2 0-0.2-0.5-0.5 0.3 0.1 0.4 0-0.1-0.4h-0.4v-0.1c-0.8-0.2-0.7-0.1-0.4 0.1v0.2c-0.6-0.7-2.1-0.9-2-1.5-1.1-0.5-2.1-0.8-3-1.2s-1.8-0.8-2.7-1.2c0-0.4 0.5-0.3 1 0-0.4-0.2-0.8-0.5-1.1-0.8 0.2-0.3 0.8 0.3 1.2 0.5-1-1.5-3.2-1.5-4.4-3.3h-0.5v-0.1c-0.1 0.1-0.6 0-0.9-0.2 0-0.5 0.5-0.6-0.2-1.2-0.3-0.8-1.7-1.4-2.5-2.1 0.3 0.5 0.1 0.4-0.2 0.3-0.3-0.4-0.3-0.8-0.6-1l0.3-0.3c-0.2 0.4-1.2-0.6-1.5-0.7 0.1-0.4 0.7 0.4 1 0.3-1.3-1.5-0.6-0.8-1.9-2.3-0.9-0.6-0.2 0.4-0.9 0.2-0.7-0.7-1.3-1.5-1.8-2.4l-0.1 0.5c-0.5-0.5-1-1.2-1.4-1.8-0.3-0.5-0.5-1.1-0.6-1.7-1.3-1.7-2.8-3.4-4.4-4.9-0.9-0.7-1.2-0.5-1.4 0.1-0.1 0.8-0.1 1.7 0.1 2.5 0.1 0.4 0.2 0.8 0.2 1.1s0.1 0.5 0.1 0.5c0.7 2.4 1.8 4.7 3.4 6.6 1.9 2 3.8 4 5.7 5.9z" style="fill: rgb(255, 255, 255);"/></g>
<g id="__id31_s9b4f5poj"><path d="m59.5 53.2c-3 14.4-11.9 28.3-24.3 36.2 13.3 12.8 22.9 29.1 27.8 46.9 3-17.1 11.3-32.9 23.8-45-12.6-9.7-22.1-23-27.3-38.1m118.1 5.8c-1.7 8.3-6.6 15.6-13.6 20.3 7.5 7.2 12.9 16.3 15.6 26.3 1.7-9.6 6.3-18.5 13.3-25.2-7.1-5.5-12.4-12.9-15.3-21.4m-54 184.6c-1 4.8-3.8 8.9-7.8 11.6 4.3 4.1 7.4 9.3 8.9 15.1 0.9-5.5 3.6-10.6 7.6-14.5-4-3.1-7-7.3-8.7-12.2m314.1-11.7c-3.1 14.4-12 28.3-24.5 36.1 13.3 12.9 22.8 29.1 27.6 47 3-17.1 11.4-32.9 23.9-45-12.5-9.8-21.9-23.1-27-38.1m-59.8 109.5c-1.3 7.7-5.6 14.7-11.9 19.3 7.2 6.4 12.5 14.6 15.4 23.8 1.2-9 5.2-17.3 11.4-23.9-6.7-4.8-11.9-11.5-14.9-19.2" stroke="#FED318" stroke-miterlimit="10" stroke-width=".36" style="fill: rgb(145, 195, 231);"/></g>
<g id="__id32_s9b4f5poj"><path d="m261.8 261.2c-2.2 2.2-3.6 2.1-5.4 4.9-1 1.2-1.9 2.5-2.8 3.8 0.2 1.1-1.2 1.5-1.2 2.6h-0.6c0 0.4-0.1 0.8-0.5 0.8l-0.1-0.1c0 0.6-0.5 0.8-0.5 1.1l-0.1-0.1-0.3 0.5-0.1-0.2c-0.2 0.8-0.6 1.4-1.2 1.9l0.5 0.3c-1.4 0.8-0.8 1.9-2.2 2.5l-0.1-0.1c0.2 2.3-2.5 1.5-2.4 3.7 0-0.3-0.3-0.1-0.4-0.2-0.4 0.7-0.8 1.5 0.1 2.2-0.4 0.5-0.6 0.1-1 0 0.4 0.3 0.3 0.8 0 1.2v-0.3l-0.6 1.1 0.9 0.4c-0.6 0.4-1-0.5-1.2 0.1l0.6 0.5c-0.7 0.7-2 0.4-3 0.8-2.6 2.9-3.4 7.4-6.6 9.5l-0.6-0.2c-0.7-0.5 0.5 1.5-0.3 1.2l0.1 0.6c-0.2 0-0.5 0.1-0.5-0.2-0.2 0.3-0.1 0.4-0.1 0.8h-0.7c-1.2 1-1.1 2.6-2.2 3.9-2 1-3.2 4.5-3.9 6.6-0.6 3.1-5.3 4.1-5.7 7.5-0.1 0-0.1 0.4 0 0.4l-1.6 2.2c-0.4 0.5-0.7 1.1-1 1.6-0.6 1-1 2.1-1.3 3.3-0.4 2.2 0.6 3.7 6.3 1.3l0.1 0.1c1.2-1 1.7-1.8 1.5-3.1 1.1 0.5 0.8-1 1.2-1l0.1 0.1c-0.3-1.2 1.6-1.2 1.4-2.3 0.1 0.1 0.3 0.3 0.2 0.4 0.2-0.6 0.5-1.5 1.1-1.1 0.7-1.4 2.1-3 1.7-4.4l0.1 0.2c-0.3-0.9 0.3-0.7 0.3-1.4h0.2c-0.3-0.9 0.9-1.5 0.9-2.1l0.4 0.2 0.6-1-0.3 0.3c-0.9-0.8 1.1-0.3 1-1.5 0.6-0.6-1.2-2.8-0.2-3.2-0.2-0.7 0.6 0.8 0.6 0.1 0.5 0.3 0.2 0.5 0.7 0.6 0.1-0.7 1.1-0.4 1.1-1.3l0.4 0.3c-0.2-1.3 1.6-1.1 1.2-2.1 0.2-1 1.6 0.3 1.4-1.1l0.8 0.1c0.3-0.3-0.5-0.7 0.1-0.9 0.3 0.3 0.6-0.3 0.8 0.2 1.2-0.5 0.5-2.4 2.3-2.9-0.5-0.7 0.3-1 0-1.6 0.3 0.2 0.9-1.1 1.1 0 0 0.1-0.1 0.2-0.2 0.1l0.3 0.4c1.2-0.1 0.5-1.5 1.1-2.1-0.3 0.1-0.4 0.4-0.6 0l0.5-0.6 0.2 0.4 0.9-0.8-0.5-0.2c0.5-0.3 1.4 0.1 1.1-0.9-0.1-0.5-0.9 0-0.6-0.5 0.9-0.4 1.7-1 2.5-1.6-0.5-0.3-0.4-0.5-0.3-0.8l0.4 0.3c0.1-1.2 1.1 0.4 1.3-0.8l0.2 0.3-0.7-0.8c-0.2-1.3 1.1 0.2 0.6-1.4-0.2 0.4-1-0.5-0.5-0.8l0.3 0.4c0.1-0.3 0-0.5 0.2-0.5 0.1 0.3 0.5 0.5 0.7 0.1l0.3 0.6-0.2-1.1c0.8-0.1 0.8-1.3 1.5-1 0 0 1-0.8 0.6-1.5 0.2 0.5 0.8 0 1.1 0.5-0.2-0.6 0-1.6 0.7-1.5v0.1c1.3-0.8 0.9-2.4 2.2-2.9-0.5-0.3 0.2-0.6-0.5-1 0.2-1.5 2.7-0.9 1.2-2.7 0.3-0.5 0.9-0.2 1.1-0.4v0.2c0.4-0.7 0.8-1.3 1.4-1.8 0.1-0.5-0.7-1.2 0-1.6 0.2 0.5 0.3 0.2 0.5 0-0.1 0.2 0 0.3 0.5 0.2-0.1-0.1-0.1-0.2-0.1-0.3h0.1c0.2-0.5 0-0.5-0.2-0.3-0.1-0.1-0.2-0.1-0.2-0.1 0.7 0 0.8-1 1.4-0.6 0.8-1.2 0.8-2.4 1.3-3.5 0.3 0.2 0.5 0.6 0.3 0.9l0.4-0.7c0.4 0.4-0.1 0.5-0.1 0.8 1.3-0.2 0.6-2.1 2-2.5l-0.2-0.5h0.1c-0.2-0.2-0.2-0.5-0.2-0.7 0.5 0.2 0.8 0.7 1.1 0.3 0.6-0.1 0.6-1.1 0.9-1.7-0.3 0.2-0.4 0-0.4-0.3 0.2-0.2 0.6 0 0.6-0.3l0.5 0.4c-0.5-0.3 0-1-0.1-1.2 0.5 0.2 0 0.6 0.2 0.9 0.7-0.9 0.4-0.5 1-1.3 0-0.8-0.5-0.3-0.7-0.9 0.2-0.5 0.3-1.2 1-1.4l-0.5-0.2c0.3-1 0.8-1.5 1.7-1.6 0.8-4.3-0.1-5.7-1.2-5.9-0.8-0.1-1.7 0.1-2.4 0.6-2.9 1.1-2.7 3.3-4.7 6.3zm17.1 54.5c0.8-7.6 1.3-12.4 1.6-17.3 0.1-2.4 0.3-4.9 0.3-7.8s0-6.1-0.3-10c-0.1-3.8-0.4-7.7-0.8-11.5-0.2-1.9-0.4-3.9-0.6-5.8-0.1-1-0.2-1.9-0.3-2.8-0.1-1.1-0.3-2.2-0.6-3.3-0.6-1.4-1.3-2.8-2.1-4.1-0.6-0.9-1.4-1.7-2.2-2.4-0.9-0.7-2-1.2-3.1-1.6-1.2-0.4-2.6-0.5-3.9-0.3-1.5 0.2-2.9 0.9-4 2-1 0.9-1.7 2.1-2 3.4-0.2 0.9-0.3 1.9-0.2 2.9-0.1 0.8-0.2 1.5-0.3 2.3 0.3 0.9 0.6 1.8 0.8 2.5s0.4 1.5 0.4 2.2h-0.2c0.9 2 1.2 4.4 1.7 5.3h-0.2l0.8 2.5-0.3-0.4c1.4 3.5 2.6 7.2 3.7 10.6l0.4-0.5c0.8 2.8 2 5.5 3.6 8 1.3 2.1 2.6 4.1 4.4 7.1h-0.2c3.4 3.1 5.7 5.6 8.4 8 1.4 1.2 2.9 2.3 4.5 3.2 0.9 0.5 1.8 0.9 2.8 1.3 1.1 0.4 2.2 0.7 3.3 0.9-1.2-0.2 0.4 0.4 0.2 0.5 2 0.6 4.1 0.9 6.1 1 1.8 0 3-0.3 3-0.9 3.1-0.1 2.6 0.2 3 0.6 0-0.2 0.6-0.5 1.6-0.8l1.6-0.5c0.6-0.2 1.2-0.3 1.8-0.6-0.4 0.2-0.7 0.4-1.1 0.5 1.3-0.4 2.5-0.9 3.6-1.5 1.2-0.6 2.3-1.5 3.2-2.5-0.6 0.2-1.2 0.3-1.8 0.4 1.6-1.2 2-1.4 2.3-1.4 0.2-0.1 0.4-0.2 0.6-0.4 0.5-0.6 0.8-1.3 1-2l-0.8-0.2c0.5-1.4 0.6-2.9 0.5-4.3-0.1-1.1-0.3-2.2-0.6-3.3-0.4-2-1-4-1.7-5.9-4.5-8.7-10.3-16.6-17.2-23.5-1.7-1.8-3.4-3.4-5.2-5.1s-3.7-3.3-5.8-4.7c-2.1-1.5-4.5-2.7-7-3.4s-5-1.1-7.6-1.2l-0.9-0.5c-0.2-0.4-1.6 0-2.9 0.6s-2.6 1.2-3 1c-0.7 0.3-1.4 0.7-2 1-0.6 0-1.9 0.4-1-0.2-1.1 0.4-2.2 0.9-3.1 1.7-0.7 0.1-1.5 0.3-2.2 0.5-7.2 3.4-11.4 8.4-17.8 12-2 0.9-4.4 2-7 3.1-2.8 1.2-5.7 2.1-8.6 2.9-3 0.8-6 1.4-9.1 1.8-2.7 0.3-5.3 0.4-8 0.4-1.4 0-2.8-0.2-4.1-0.8-0.5-0.2-1-0.6-1.4-1s-0.6-0.9-0.8-1.4c-0.3-1.2-0.2-2.6 0.2-3.8 0.2-0.6 0.5-1.2 0.9-1.8 0.4-0.5 0.8-1 1.3-1.5 2.1-1.9 5.2-3 8.6-4s6.9-2 10.2-3c0.6-0.1 1.1-0.3 1.5-0.6 4.2-0.8 8.4-1.3 12.6-1.6 0 0 1-0.1 2.6-0.2s3.8-0.2 6.4-0.2c5.1-0.1 11.3 0.2 16.2 0.6 2.4 0.2 4.5 0.3 5.9 0.2s2.1-0.3 1.8-0.9c-0.3-0.6-1.6-1.4-4.4-2.6-4.2-1.7-8.6-3-13.1-3.9l0.3-0.2c-7.4-0.8-12.1-0.7-17.1 0.6-0.9-1.1-6.1 0.5-7.8 0.4l0.1-0.1c-4.3 1.6-9.3 1-13.4 2.9 0.1-0.1 0.1-0.5 1.1-0.8l-4.8 1.6c-1.5 0.5-2.7 0.8-2.9 0.5-2.1 0.8-4.2 1.9-6.1 3.2-1.1 0.7-2.1 1.6-3 2.5-1 1-1.8 2.1-2.5 3.4-1.2 2.3-1.8 4.9-1.7 7.5 0.1 1.2 0.4 2.3 0.8 3.4 0.4 0.9 0.9 1.8 1.6 2.5l-0.4-0.3c1 1.1 2.1 2.1 3.3 3s2.6 1.4 4 1.7c0.2 0.1 0.4 0.2 0.4 0.3 1.8 0.1 4.1 0.3 6.3 0.4 1.8 0.1 3.7 0.1 5.5-0.1l0.2 0.4c2-0.2 4.1-0.4 6.1-0.8-0.8 0.1-1.5 0.1-2.3 0.2 0.3-0.7 1.5-0.6 3.1-0.6 2 0 4-0.4 5.8-1.2 2-0.6 3.9-1.7 5.6-3.1 1.6-1.4 3.4-2.5 5.4-3.4 1.5-1.5-1.1 1.7 1.3-0.1 0.4 0.5-1.1 1-0.1 1.1 2.5-1.7 4.6-1.9 7.4-4.3l0.4 0.3c3.4-3.4 7.5-4.5 9.6-6.7 1-0.9 2.2-1.4 3.5-1.5 0.8-0.1 1.6-0.3 3.5-1.6h1.9c1.8-0.5 1.1-1.2 3.2-1.4 0 0.2 0.6 0.2 1.1 0.2s0.9 0 0.3 0.3c2.2-0.1 4.5-0.1 6.7 0.1l0.9 0.2 0.8 0.2c0.6 0.2 1.2 0.4 1.7 0.7 1.2 0.7 2.4 1.6 3.3 2.7 1.6 0.1 3.7 2.8 4.9 3.2-0.1 0.4 4.7 5 1.5 2.7-0.3-0.2-0.7-0.6-0.5-0.7h-0.7c2 3.4 5.1 4.8 7.4 7.9-0.6-1-1.6-2.1-0.7-1.6 0.7 1 1.5 1.9 2.2 2.8l-0.8-0.3c1 1.5 2 2.9 3 4.4v-0.9c1.3 2.3 1.1 3.5 3.2 5.6 1 0.9-0.7-2.5 0.9-0.2 1.6 3.1 3.6 8 5.3 12 0.4-0.6 0.9 0.5 1.2 1.2l-0.5 0.2c0.3 0.6 0.3 0.8 0.3 0.8-0.1 0.1-0.2 0.1-0.4 0.1h-0.4c-0.1 0-0.1 0-0.3 0.5 0-0.1-0.1-0.2-0.1-0.3 0.2 0.3 0.3 0.7 0.3 1.1-0.2 0.4-0.6 0.8-1 1-0.3 0.1-0.5 0.1-0.8 0.1-0.5 0-0.9 0-2.7 1.1 0.8-0.2 1 0 0.8 0.3-0.2 0.2-0.4 0.4-0.6 0.5-0.4 0.2-0.8 0.2-1.3 0.2l0.4-0.5-1.2 0.3c-0.3 0.1-0.7 0.1-1 0.1 0.6-0.3 0.3-0.7-1.3-0.6 0.3-0.2 0.7-0.4 1-0.6l-0.7 0.2-0.8 0.2c-0.5 0.1-1 0.2-1.6 0.3-1.1-0.4-2.7-0.7-4-1.1-1-0.2-2-0.7-2.8-1.4l-0.7-0.4c-0.5-0.2-1.1-0.5-1.7-0.9s-1.3-0.7-1.9-1c-0.5-0.3-1-0.4-1.5-0.6 1.1 0.3-1.1-1.6-0.1-1.6-0.5-0.1-0.9-0.4-1.3-0.6-0.6-0.3-1.1-0.7-1.6-1.2-1-0.7-1.8-1.7-2.3-2.8l0.2 0.2c-1.7-2.4-3.3-4.6-4.7-6.8-1.5-2.2-2.6-4.7-3.4-7.3-0.5 0.5-1.2-2.5-1.6-1.6-1.1-2.5-1.9-5.2-2.3-7.9-0.5-2.3-0.9-4.1-2.3-4.9-0.8-2.8-0.3-3.4-0.5-4.9l0.3 0.6c-0.2-0.7-0.3-1.2-0.4-1.6s-0.1-0.7-0.2-1.1v-0.6c0-0.1 0.1-0.1 0-0.2l-0.1-0.1-0.2-0.2c-0.1-0.1 0 0 0 0.1v0.2 0.1c0.1 0 0.2 0 0.3 0.1 0.3 0 0.7-0.1 1.1-0.1s1 0.5 1.3 1.9c-0.7-0.7-0.2 0.2-0.1 1.4-0.2-0.7-0.4-0.9-0.4 0.6 0.2 0.3 0.3 0.6 0.4 0.9 0 0 0 0.1-0.1 0.1 0.4 2.2 0.5 1.8 0.4 0.8 0.1 0 0.1 0 0.2-0.4-0.3 2.4 0.7 6.4 0 6.7 0.3 3.3 0.8 6.2 1.1 8.9s0.7 5.3 1 8.1c-0.4 0.6-0.7-0.7-0.9-2.3l0.2 3.9c-0.5 0-0.4-2.3-0.5-3.5-0.7 4.7 1 9.7 0.1 15.2l0.4 1.1-0.1 0.3c0.2 0 0.5 1.2 0.5 2.1-0.5 0.8-1.1-0.1-1.1 2.6-0.6 2.1-0.1 6.1-0.1 9 0.2-1.5 0.4-1 0.5-0.3-0.1 1.4-0.6 2.1-0.5 3.2l-0.6 0.1c0.3-0.2 0.4 0.7 0.4 1.7 0 0.8 0 1.6 0.1 2.5-0.5 0.7-0.2-2.1-0.5-2.5-0.5 5.4-0.2 2.7-0.8 8.2 0.1 3 0.7-0.5 1 1-0.1 1.3-0.1 2.6-0.2 3.9-0.1 1.4-0.4 2.8-0.7 4.1l0.7-0.8c-0.1 2-0.3 4.1-0.7 6.1-0.3 1.6-0.8 3.2-1.4 4.8-0.6 9.1-1 14.2-0.9 16.8s0.8 2.5 1.6 1.4c1-1.8 1.8-3.6 2.5-5.5 0.7-2 1.2-3.8 1.2-3.8 1.9-6 3.2-12.1 3.7-18.3 1.2-5.7 1.5-12 2-20.6zm144.3-262c5.4 8.1 9.6 17 12.5 26.2 1.3 3.9 2.4 7.9 3.6 12.5l0.9 3.6c0.3 1.2 0.5 2.6 0.8 3.9 0.6 2.7 1 5.7 1.6 9 0.8 6.3 1.3 12.9 1.5 19.5v4.9 2.4l-0.1 2.4c0 1.6-0.1 3.2-0.2 4.8s-0.2 3.2-0.4 4.8v2.4c0 0.9-0.1 1.8-0.2 2.8-0.2 1.9-0.4 4-0.8 6.1s-0.7 4.2-1.2 6.1-0.7 3.9-1.1 5.6l-1.2 2.4c-0.1 0.6-0.2 1.2-0.4 1.8s-0.4 1.2-0.6 1.8c-0.4 1.2-0.9 2.4-1.4 3.5l-0.1-0.2c-0.6 1.7-1.2 3.4-1.9 5-0.7 1.5-1.4 2.8-1.7 3.6l-0.1-0.2-1 1.9c-0.3 0.6-0.7 1.3-1.1 1.9l0.2-0.7c-2.7 5.5-6.2 10.5-10.3 15.1h0.8l-2.9 3.1c-0.9 0.9-1.8 1.8-2.5 2.6l-1.1 1.2-1.1 1.1-2 2.2c-1.4 1.4-2.9 2.7-4.5 4.1-0.8 0.7-1.7 1.4-2.7 2.1s-2 1.5-3.2 2.2v-0.2c-5.1 4.8-10.1 7.4-15.1 9.9s-10.2 4.6-16.6 7.9c1.6-0.8-0.8 0-0.7-0.2-6.1 2.5-13 4.6-12.8 5.7-4.7 1.2-3.9 0.6-4.6 0.4 0.1 0.2-0.9 0.6-2.4 1.1-1.7 0.5-3.5 1-5.3 1.3l1.7-0.5-5.4 1-5.4 0.8c0.7 0.2 1.5 0.4 2.2 0.7-2.9 0.3-3.3-0.1-3.7-0.2s-0.7-0.3-3.4 0.1l0.1 0.8c-2 0.1-3.8 0.1-5.5 0s-3.3-0.3-4.8-0.5-3.1-0.5-4.7-0.7-3.3-0.6-5.2-0.9c-3.8-0.5-7.6-1.3-11.2-2.5-1.9-0.6-3.8-1.3-5.6-2s-3.7-1.6-5.6-2.4c-7.4-3.5-14.5-7.6-21.2-12.3-13.4-9.4-24.9-21.1-33-33.6l-0.2-1.4c0.2-0.5-1.2-2-2.6-3.6s-2.8-3.3-2.7-4c-0.7-0.9-1.4-1.8-2.1-2.8-0.3-0.9-1.1-2.8-0.1-1.4-0.9-1.6-1.8-3.2-2.9-4.8l-0.9-3.3c-0.6-1.4-1.1-2.9-1.7-4.3s-1.1-2.8-1.6-4.2c-0.9-2.8-2-5.5-2.7-8.4-0.4-1.4-0.8-2.8-1.2-4.3s-0.6-2.9-0.9-4.4c-0.1-0.8-0.3-1.5-0.4-2.3s-0.2-1.6-0.3-2.3c-0.2-1.6-0.4-3.2-0.5-4.8 0.1-2 0.1-4.2 0-6.5s0.2-4.9 0.3-7.5c0.3-2.6 0.5-5.4 0.8-8.2 0.2-1.4 0.4-2.8 0.7-4.2s0.4-2.9 0.7-4.3l0.9-4.2 0.4-2.1 0.6-2.1c0.7-2.8 1.4-5.6 2.2-8.3 0.4-1.3 0.8-2.6 1.1-3.9s0.8-2.5 1.2-3.7c0.8-2.4 1.6-4.7 2.3-6.7 4.4-12.2 11-23.4 19.6-33.1 4.3-4.9 9-9.4 14.2-13.4 5-3.9 10.2-7.4 15.6-10.6 0.9-0.4 1.7-0.9 2.4-1.5 6.9-3.2 14.1-5.7 21.5-7.3l1.2-0.3c0.8-0.2 1.9-0.5 3.3-0.7 2.8-0.6 6.7-1.2 11.2-1.8 9.6-1.1 19.3-1.6 29-1.6h6s3.3 0 4.5-0.1c2.4-0.1 3.6-0.4 2.9-1s-3.3-1.4-8.4-2.4l-4.3-0.8c-1.6-0.3-3.4-0.5-5.4-0.7-3.9-0.5-8.6-0.9-14.1-1.1l0.6-0.2c-5.6 0-11.1 0.4-16.6 1.2-4.5 0.7-9 1.8-13.3 3.3-0.8-0.4-3.5 0.3-6.2 1.2s-5.7 2.1-7.1 2.5l0.2-0.2c-1.8 0.9-3.7 1.7-5.5 2.6-0.9 0.4-1.9 0.8-2.8 1.2l-2.8 1.3c-1.9 0.8-3.7 1.8-5.5 2.8-1.7 1-3.4 2.1-4.9 3.4 0.2-0.2 0.2-0.6 1.6-1.6-1.1 0.8-2.5 1.7-3.7 2.7l-3.5 2.7c-2.1 1.8-3.7 3-4.1 2.9-5.6 5-10.6 10.6-15 16.7-3.7 5-6.8 10.5-9.3 16.2l0.1-0.6c-0.5 1.1-0.8 2.1-1.2 2.9s-0.7 1.6-1.1 2.3-0.8 1.5-1.2 2.4-0.8 1.9-1.3 3.2c-0.2 0.2-0.4 0.6-0.4 0.5-0.2 0.6-0.4 1.3-0.7 2.1s-0.5 1.6-0.8 2.4c-0.6 1.7-1.4 3.4-2 5.2s-1.3 3.5-1.9 5-0.9 2.9-1.2 3.9l-0.5 0.1c-1.1 3.3-2 6.7-2.9 10.1l1.2-3.8c0.4 0.8-0.4 2.7-1.3 5.3-0.4 1.3-0.9 2.8-1.4 4.5-0.2 0.8-0.4 1.7-0.6 2.6s-0.2 1.9-0.3 2.8c-0.3 1.8-0.5 3.6-0.6 5.4 0 1.8 0.2 3.7 0.3 5.6l0.2 2.8c0.1 0.9 0.2 1.8 0.3 2.8 0.1 1.8 0.1 3.7 0 5.5 0.7 3.5-1.1-3.1-0.4 2.2-0.6 0.2-0.5-2.5-1-1.1 0.1 1.2 0.2 2.4 0.2 3.6v3.4s0.1 2.3 0.3 3.6c0.1 1.4 0.3 2.9 0.7 4.3l-0.4 0.3c0.6 2 1 4 1.4 6s0.9 3.8 1.2 5.6 0.9 3.4 1.4 5c0.4 1.5 1 2.9 1.8 4.2 0.7 1.4 1.2 2.9 1.7 4.4 0.3 1.1 0.5 1.8 0.7 2.5 0.2 0.9 0.5 1.7 0.8 2.6 0.2 0.5 0.5 1.1 0.9 1.9s0.9 1.5 1.6 2.5l1.1 3.4c1.8 3.4 2.1 2 4 5.9-0.6 0 2.7 4.7 1 2.9 1.2 2.2 2.6 4.2 4.1 6.2l2.4 3c0.8 1 1.7 2 2.6 3 3.5 4 7.5 8.1 11.7 13 1.7 1.1 3.3 2.3 4.7 3.6 1.3 1.2 2.8 2.3 4.3 3.2 1.3 1.3 2.8 2.6 4.3 3.8 0.6 0.5 1.1 0.9 1.7 1.5 0.1 0.2-0.5-0.1-2-1-0.5-0.3-1.4-1-1.2-1.1l-1-0.2c1.2 1.3 2.6 2.5 4 3.5s2.8 2 4.2 2.8l4.4 2.5c1.5 0.8 3 1.7 4.5 2.7-1.8-1.3-4.2-2.8-2.4-2l2.8 1.8 2.9 1.7-1.4-0.3c2.9 1.8 5.8 3.4 8.8 5-0.4-0.4-0.7-0.7-1-1.1 4.4 2.4 5.6 3.9 11.2 5.2 2.5 0.5-4.2-2.2 0.8-0.6 3.7 1.6 7.6 2.8 11.6 3.6 2.3 0.5 4.5 0.7 6.7 0.9s4.4 0.3 6.6 0.4c-0.8-0.6 1.5-0.6 3.8-0.7l0.3 0.5c4.5-0.5 5.3-0.3 6.1-0.1s1.7 0.5 6.1-0.2l-0.7 0.4c0.7-0.4 1.5-0.9 2.2-1.3 1.3-0.4 2.7-0.7 4.1-0.8 0.7-0.1 1.4-0.1 2.1-0.1 0.8 0 1.5-0.1 2.2-0.2 1.5-0.3 3-0.8 4.5-1.4-3.4 0.8-1.8-0.7 2.4-1.4l-1 0.7c2.3-0.6 3-1.1 4.6-1.3-1.3 0.6-0.5 0.9 2.8-0.1l-2.1 1.2c2.1-0.8 4.1-1.8 6.1-2.7 5-1 12.4-4.5 14.6-4.8l1.6-0.7 1.7-0.7c0.6-0.3 1.3-0.6 2-0.9 1.4-0.7 2.8-1.4 4-2.1 0.9-0.5 1.8-1.1 2.6-1.8-1.7 1.5 3.7-1.3 2.5 0 1.1-1 3.5-2.6 5.9-4.2 2.1-1.5 4.2-2.8 6.4-4.1l-0.5 0.4c4.7-3.1 9.1-6.6 13.1-10.6l2.7-2.8 1.4-1.4 1.3-1.4c0.9-1 1.8-1.9 2.8-2.9s1.8-2 2.8-3c-0.4 0 0.5-1.1 1.2-2.1s1.3-2 0.5-1.6c0.8-1.2 1.6-2.4 2.5-3.5s1.5-2.3 2.3-3.3l1.1-1.6c0.3-0.5 0.7-1 1-1.5 0.7-1 1.3-2 1.9-2.9 2.3-3.8 3.8-6.9 3.6-9.3 0.5-1.2 1-2.2 1.4-3s0.7-1.4 1-2c0.6-1 1.1-2.1 1.6-3.2l-0.3 1.2c0.9-2.3 1.3-4.3 1.9-6 0.2-0.9 0.5-1.6 0.7-2.4s0.3-1.5 0.5-2.2c0.3-1.4 0.6-2.7 1-4.2s0.5-3 0.9-4.8c0.1-1.4 0.1-2.9-0.1-4.3-0.1-2.1 0.1-4.3 0.4-6.4 0.2 2.1 0.4-0.5 0.6-2.9-0.1 1.6 0 2 0.6-1.1-0.1-0.6-0.1-1.2-0.1-1.8l0.1-0.1c0-4.1-0.1-3.4-0.3-1.5-0.1-0.1-0.1 0.1-0.3 0.6 0.4-2.5 0.6-5 0.6-7.5s0.1-4.5 0.4-4.7c0-3-0.3-5.9-0.4-8.6s-0.5-5.2-0.9-7.7c-0.8-4.9-1.6-9.5-2.8-14.5 0.1-0.6 0.3-0.3 0.6 0.4 0.2 0.5 0.4 1 0.5 1.5 0.2 0.6 0.3 1.3 0.5 2-0.4-2.4-1-4.7-1.5-7 0.5 0 1.2 4 1.6 6.2-0.2-2.2-0.5-4.4-1-6.5-0.5-2.2-1.2-4.3-1.8-6.6s-1.5-4.4-2.2-6.7-1.5-4.7-2.2-7.1l-1.2-1.8-0.1-0.6c-0.2 0.1-1.3-1.9-2-3.2-0.2-1.5 1-0.3-1.1-4.9-0.4-1.1-0.9-2.2-1.5-3.2-0.6-1.3-1.3-2.5-2.1-3.7s-1.7-2.5-2.5-3.8-1.7-2.3-2.5-3.4c1.5 2.4 0.8 1.8 0 0.8s-1.1-1.9-1.6-2.7c-0.4-0.8-1-1.5-1.6-2.2l0.4-0.6c0 0.6-1-0.7-2.3-2.1s-2.7-3-3.1-3.2c-0.5-1.4 2.8 2.8 3.4 3l-3.3-4c-0.7-0.8-1.2-1.3-1.6-1.8l-1.6-1.7c-0.7-0.8-1.9-1.9-3.7-3.7-4.2-3.4 0.3 1.1-1.9-0.3-0.9-0.8-1.8-1.5-2.7-2.2s-1.8-1.5-2.8-2.2c-2-1.4-3.9-3-6-4.6l1.1 1.4c-3.7-2.4-6.8-4-9.5-5.6-1.4-0.7-2.7-1.5-3.9-2.2s-2.5-1.4-3.8-2.1c-6.1-2.1-12.4-3.6-18.8-4.3-2.4-0.2-4.4-0.3-6.1-0.4s-3.1 0.1-4.1 0.1c-4.3 0.3-4.1 1-1.8 1.7 1.4 0.5 2.9 0.9 4.4 1.2l1.3 0.3 1.4 0.4 2.7 0.7c1.8 0.4 3.3 1 4.5 1.3l1.9 0.5c5.1 1.7 10.2 3.7 15.1 6 1.1 0.5 2.2 1.1 3.3 1.7l1.6 0.8 1.6 0.9 3.2 1.8 3 2 1.5 1 1.5 1.1c1 0.7 2 1.4 3 2.2l3 2.5c1.1 0.8 2 1.8 3.1 2.7 4.2 4.8 8.4 9.6 12.1 14.8z" style="fill: rgb(57, 102, 129);"/></g>
</svg>